<?xml version="1.0" encoding="UTF-8"?>
<svg version="1.1" xmlns="http://www.w3.org/2000/svg" width="500" height="500">
<path d="M0 0 C165 0 330 0 500 0 C500 165 500 330 500 500 C335 500 170 500 0 500 C0 335 0 170 0 0 Z " fill="#FEFEFE" transform="translate(0,0)"/>
<path d="M0 0 C2.56414613 0.0184719 5.12793224 0.02050716 7.69213867 0.02026367 C20.49259781 0.04692502 32.1494929 1.07122452 44.60424805 4.20581055 C45.83916992 4.50616211 47.0740918 4.80651367 48.34643555 5.1159668 C56.47035049 7.16771219 63.99688307 9.70915176 71.60424805 13.20581055 C72.37575195 13.55417969 73.14725586 13.90254883 73.94213867 14.26147461 C95.79991816 24.16603909 114.24419414 36.69447039 131.60424805 53.20581055 C132.55364258 54.07592773 132.55364258 54.07592773 133.5222168 54.96362305 C159.13991408 79.18177867 176.66156698 115.77197769 182.60424805 150.20581055 C182.89235352 151.83196289 182.89235352 151.83196289 183.1862793 153.4909668 C187.64380581 180.39646856 186.41327004 208.02419229 178.60424805 234.20581055 C178.41024414 234.8817627 178.21624023 235.55771484 178.01635742 236.25415039 C172.40022702 255.6030568 163.58656717 274.00106104 151.60424805 290.20581055 C151.17724609 290.79072266 150.75024414 291.37563477 150.31030273 291.97827148 C145.96234402 297.90435412 141.53177544 303.60044663 136.1784668 308.66674805 C134.54584856 310.26290583 133.11563393 311.94228725 131.66674805 313.70581055 C128.32457425 317.65167543 124.59989533 320.93362764 120.60424805 324.20581055 C119.28553711 325.29829102 119.28553711 325.29829102 117.94018555 326.4128418 C94.69382207 345.00392577 68.48166222 357.22994924 39.60424805 364.20581055 C38.81679199 364.39788086 38.02933594 364.58995117 37.21801758 364.7878418 C12.64575154 370.41417669 -17.10508128 369.40708143 -41.39575195 363.20581055 C-42.6803833 362.88435059 -42.6803833 362.88435059 -43.9909668 362.55639648 C-56.35493434 359.37093025 -67.93817847 354.80711199 -79.39575195 349.20581055 C-80.37535889 348.73038818 -80.37535889 348.73038818 -81.37475586 348.24536133 C-125.34595414 326.62404053 -157.95677966 287.41627335 -173.70825195 241.33081055 C-184.00185318 210.00495925 -186.49635037 174.30211834 -178.39575195 142.20581055 C-178.07963342 140.85578725 -177.76448011 139.50553746 -177.45043945 138.1550293 C-173.69474039 122.95865033 -167.73097459 108.9835167 -160.39575195 95.20581055 C-160.07880371 94.59995117 -159.76185547 93.9940918 -159.43530273 93.36987305 C-154.73416596 84.44039396 -149.22792126 76.66429678 -142.81030273 68.91723633 C-141.42628093 67.2427467 -140.0642797 65.5522293 -138.7043457 63.8581543 C-125.01630145 47.00729493 -108.17925006 33.99131231 -89.39575195 23.20581055 C-88.76475586 22.84245605 -88.13375977 22.47910156 -87.48364258 22.10473633 C-73.60100913 14.19541285 -59.16298232 8.62736771 -43.77075195 4.39331055 C-42.7355542 4.10085449 -42.7355542 4.10085449 -41.67944336 3.80249023 C-28.0471385 0.26738077 -13.99786669 -0.10414878 0 0 Z " fill="#FCFCFD" transform="translate(249.395751953125,65.794189453125)"/>
<path d="M0 0 C15.51341786 12.24642962 26.19770852 27.0255575 32.98242188 45.56494141 C33.39621094 46.63099609 33.81 47.69705078 34.23632812 48.79541016 C39.59877409 65.03222389 39.3307632 86.32582439 33.98242188 102.56494141 C33.64210938 103.62841797 33.30179688 104.69189453 32.95117188 105.78759766 C28.53189787 118.31385067 21.79978347 129.63454008 12.98242188 139.56494141 C12.38042969 140.24943359 11.7784375 140.93392578 11.15820312 141.63916016 C-2.75283894 156.48343775 -24.10219057 167.47915639 -44.48632812 168.78759766 C-48.39388177 168.90527061 -52.29619279 168.95099221 -56.20507812 168.93994141 C-56.89389069 168.93972992 -57.58270325 168.93951843 -58.29238892 168.93930054 C-68.44398373 168.90813576 -77.48167884 168.34942363 -87.01757812 164.56494141 C-88.025625 164.21431641 -89.03367188 163.86369141 -90.07226562 163.50244141 C-114.5946181 154.33044463 -132.11109948 134.8208919 -143.01757812 111.56494141 C-152.60098144 89.98874806 -151.71010192 63.28748576 -143.50976562 41.50244141 C-133.81128079 17.01166889 -114.77253415 -1.50322295 -90.70507812 -11.93505859 C-84.9653292 -13.97431081 -78.98295782 -15.24652482 -73.01757812 -16.43505859 C-72.10621094 -16.62326172 -71.19484375 -16.81146484 -70.25585938 -17.00537109 C-45.57292047 -20.28054996 -20.18378136 -14.812619 0 0 Z " fill="#55B2FE" transform="translate(306.017578125,173.43505859375)"/>
<path d="M0 0 C2.56414613 0.0184719 5.12793224 0.02050716 7.69213867 0.02026367 C20.49259781 0.04692502 32.1494929 1.07122452 44.60424805 4.20581055 C45.83916992 4.50616211 47.0740918 4.80651367 48.34643555 5.1159668 C56.47035049 7.16771219 63.99688307 9.70915176 71.60424805 13.20581055 C72.37575195 13.55417969 73.14725586 13.90254883 73.94213867 14.26147461 C95.79991816 24.16603909 114.24419414 36.69447039 131.60424805 53.20581055 C132.55364258 54.07592773 132.55364258 54.07592773 133.5222168 54.96362305 C159.13991408 79.18177867 176.66156698 115.77197769 182.60424805 150.20581055 C182.89235352 151.83196289 182.89235352 151.83196289 183.1862793 153.4909668 C187.64380581 180.39646856 186.41327004 208.02419229 178.60424805 234.20581055 C178.41024414 234.8817627 178.21624023 235.55771484 178.01635742 236.25415039 C172.40022702 255.6030568 163.58656717 274.00106104 151.60424805 290.20581055 C151.17724609 290.79072266 150.75024414 291.37563477 150.31030273 291.97827148 C145.96234402 297.90435412 141.53177544 303.60044663 136.1784668 308.66674805 C134.54584856 310.26290583 133.11563393 311.94228725 131.66674805 313.70581055 C128.32457425 317.65167543 124.59989533 320.93362764 120.60424805 324.20581055 C119.28553711 325.29829102 119.28553711 325.29829102 117.94018555 326.4128418 C94.69382207 345.00392577 68.48166222 357.22994924 39.60424805 364.20581055 C38.81679199 364.39788086 38.02933594 364.58995117 37.21801758 364.7878418 C12.64575154 370.41417669 -17.10508128 369.40708143 -41.39575195 363.20581055 C-42.6803833 362.88435059 -42.6803833 362.88435059 -43.9909668 362.55639648 C-56.35493434 359.37093025 -67.93817847 354.80711199 -79.39575195 349.20581055 C-80.37535889 348.73038818 -80.37535889 348.73038818 -81.37475586 348.24536133 C-125.34595414 326.62404053 -157.95677966 287.41627335 -173.70825195 241.33081055 C-184.00185318 210.00495925 -186.49635037 174.30211834 -178.39575195 142.20581055 C-178.07963342 140.85578725 -177.76448011 139.50553746 -177.45043945 138.1550293 C-173.69474039 122.95865033 -167.73097459 108.9835167 -160.39575195 95.20581055 C-160.07880371 94.59995117 -159.76185547 93.9940918 -159.43530273 93.36987305 C-154.73416596 84.44039396 -149.22792126 76.66429678 -142.81030273 68.91723633 C-141.42628093 67.2427467 -140.0642797 65.5522293 -138.7043457 63.8581543 C-125.01630145 47.00729493 -108.17925006 33.99131231 -89.39575195 23.20581055 C-88.76475586 22.84245605 -88.13375977 22.47910156 -87.48364258 22.10473633 C-73.60100913 14.19541285 -59.16298232 8.62736771 -43.77075195 4.39331055 C-42.7355542 4.10085449 -42.7355542 4.10085449 -41.67944336 3.80249023 C-28.0471385 0.26738077 -13.99786669 -0.10414878 0 0 Z M-35.39575195 10.20581055 C-36.02835938 10.35977295 -36.6609668 10.51373535 -37.31274414 10.67236328 C-84.17281514 22.13630418 -124.24174659 49.78931799 -149.77880859 91.05102539 C-154.10441574 98.22015232 -157.89208001 105.60482124 -161.39575195 113.20581055 C-161.92942383 114.34791992 -162.4630957 115.4900293 -163.01293945 116.66674805 C-180.79874843 157.67547859 -179.56448662 205.86818174 -163.84887695 247.2019043 C-152.20538047 276.3339325 -133.58179009 303.1726032 -108.39575195 322.20581055 C-107.29003821 323.0739882 -106.18458227 323.94249426 -105.0793457 324.8112793 C-84.13451876 341.00442681 -59.38280851 352.08795145 -33.39575195 357.20581055 C-32.60789307 357.38096191 -31.82003418 357.55611328 -31.00830078 357.73657227 C-21.82605251 359.56734636 -12.69283995 359.50922341 -3.37011719 359.46655273 C-0.59914055 359.45587179 2.17118217 359.46647753 4.94213867 359.47924805 C33.98727234 359.50310035 61.10531007 352.03232021 86.60424805 338.20581055 C87.20430664 337.8903125 87.80436523 337.57481445 88.42260742 337.24975586 C102.85167738 329.65757892 114.8427071 319.38457244 126.60424805 308.20581055 C127.23588867 307.62702148 127.8675293 307.04823242 128.51831055 306.4519043 C134.60885168 300.69331209 139.60892462 293.90784019 144.60424805 287.20581055 C145.02609375 286.6442627 145.44793945 286.08271484 145.88256836 285.50415039 C158.69663312 268.18633372 167.41493708 248.03288535 172.60424805 227.20581055 C172.8048584 226.42141602 173.00546875 225.63702148 173.2121582 224.82885742 C176.48857743 211.93680198 177.84159035 199.81633809 177.85424805 186.51831055 C177.85525513 185.78515625 177.85626221 185.05200195 177.8572998 184.29663086 C177.84594745 172.04677408 177.03576839 160.23885198 174.60424805 148.20581055 C174.45971191 147.45992676 174.31517578 146.71404297 174.16625977 145.94555664 C170.99291719 129.91016112 165.10602823 115.38321431 157.51538086 100.95581055 C156.73573427 99.45835428 155.99058912 97.94302108 155.25268555 96.42456055 C152.01636475 89.99162841 147.90270337 84.25713132 143.66674805 78.45581055 C143.08135254 77.65103271 142.49595703 76.84625488 141.89282227 76.01708984 C138.58464373 71.56795361 135.14075771 67.53123207 131.12524414 63.70483398 C129.60424805 62.20581055 129.60424805 62.20581055 127.16674805 59.20581055 C123.94552593 55.43462368 120.42667733 52.35510763 116.60424805 49.20581055 C116.1021582 48.79137695 115.60006836 48.37694336 115.08276367 47.94995117 C106.98291756 41.3071188 98.71290907 35.42307911 89.60424805 30.20581055 C88.52530273 29.5612793 87.44635742 28.91674805 86.3347168 28.25268555 C74.8005858 21.57191141 62.21441768 17.3881906 49.60424805 13.20581055 C48.75378906 12.91939697 47.90333008 12.6329834 47.02709961 12.33789062 C22.63608983 4.51522768 -10.52902457 3.93156683 -35.39575195 10.20581055 Z " fill="#3B70AC" transform="translate(249.395751953125,65.794189453125)"/>
<path d="M0 0 C14.26172893 4.81320399 27.26147962 12.05433727 37.8828125 22.78125 C38.7490625 23.60625 39.6153125 24.43125 40.5078125 25.28125 C41.6834375 26.51875 41.6834375 26.51875 42.8828125 27.78125 C43.47449219 28.3896875 44.06617188 28.998125 44.67578125 29.625 C59.63254818 45.59431402 68.97401563 67.83031026 69.8828125 89.78125 C69.99496094 91.55242187 69.99496094 91.55242187 70.109375 93.359375 C70.81786853 109.34368017 66.97991934 125.45838785 59.8828125 139.78125 C59.46644531 140.66296875 59.05007813 141.5446875 58.62109375 142.453125 C46.88331281 165.72689122 25.86266442 182.29374101 1.56640625 190.96484375 C-25.01686543 199.5330057 -52.23899338 197.53752386 -77.06884766 184.88867188 C-100.19700806 172.38457943 -116.41937555 152.2473533 -125.1171875 127.78125 C-125.43429688 126.9253125 -125.75140625 126.069375 -126.078125 125.1875 C-129.54796808 115.43071351 -130.43871699 106.03687899 -130.3671875 95.71875 C-130.37492188 94.59919922 -130.38265625 93.47964844 -130.390625 92.32617188 C-130.37541788 85.84413666 -129.78176399 80.03550907 -128.1171875 73.78125 C-127.92898437 72.81058594 -127.74078125 71.83992188 -127.546875 70.83984375 C-122.6583376 47.73978323 -106.23957907 26.16473993 -87.1171875 12.78125 C-78.62546809 7.27832106 -69.82223485 2.72713284 -60.1171875 -0.21875 C-58.9209375 -0.610625 -57.7246875 -1.0025 -56.4921875 -1.40625 C-52.9933805 -2.24855539 -49.6148267 -2.67075633 -46.03515625 -2.97265625 C-30.51369413 -4.96420842 -15.31588249 -4.75092956 0 0 Z M-100.96484375 34.2578125 C-109.33167497 43.33258698 -114.96751953 54.21515417 -119.1171875 65.78125 C-119.53097656 66.93238281 -119.94476563 68.08351563 -120.37109375 69.26953125 C-127.3606159 92.33251898 -124.23706174 118.32162551 -113.2265625 139.49609375 C-109.25255264 146.83941579 -104.66890402 153.52872509 -99.1171875 159.78125 C-98.51519531 160.46574219 -97.91320312 161.15023437 -97.29296875 161.85546875 C-83.97534566 176.06651729 -62.51240185 187.96155138 -42.89428711 188.94238281 C-39.64760749 188.97999505 -36.4014162 189.01237992 -33.15454102 189.02148438 C-31.08502736 189.0311089 -29.01654332 189.06213158 -26.94726562 189.09375 C-18.57724337 189.16120156 -11.11122078 188.30070895 -3.1171875 185.78125 C-2.02700317 185.45253906 -2.02700317 185.45253906 -0.91479492 185.1171875 C23.05938837 177.53922612 42.15662444 160.63476286 53.7722168 138.4140625 C63.92203703 118.02842579 67.43206928 91.03747857 60.203125 69.1484375 C59.76742187 68.03726563 59.33171875 66.92609375 58.8828125 65.78125 C58.64143555 65.13833008 58.40005859 64.49541016 58.15136719 63.83300781 C49.06280111 39.90549988 31.67547827 20.87398744 8.37109375 10.16796875 C-31.25219198 -5.728237 -71.69721318 3.82774294 -100.96484375 34.2578125 Z " fill="#F6FAFD" transform="translate(280.1171875,153.21875)"/>
<path d="M0 0 C0.66 0 1.32 0 2 0 C3.35382149 1.48738235 4.63139886 3.04430551 5.875 4.625 C9.99596762 9.78285625 14.23665752 14.81026924 18.57373047 19.78759766 C19.51841889 20.87960214 20.44959404 21.9834674 21.36576843 23.09950256 C22.96541471 25.02593787 22.96541471 25.02593787 24.79942322 26.70051575 C31.16936061 33.35632453 30.92988021 40.35798697 30.7401104 49.02646065 C30.71213466 50.25279622 30.71213466 50.25279622 30.68359375 51.50390625 C30.67051803 53.19496094 30.66056319 54.88604236 30.65357971 56.57713318 C30.62700851 61.00174761 30.55838475 65.424722 30.48065186 69.84869385 C30.40870333 74.37351298 30.37700115 78.89860034 30.34179688 83.42382812 C30.26699969 92.28326784 30.14772227 101.1414969 30 110 C25.71 110 21.42 110 17 110 C17 93.83 17 77.66 17 61 C6.44 61 -4.12 61 -15 61 C-15 77.17 -15 93.34 -15 110 C-19.29 110 -23.58 110 -28 110 C-28.20937255 100.28113639 -28.36886434 90.56305953 -28.46630955 80.84242535 C-28.51310134 76.32764711 -28.57646705 71.81442172 -28.67895508 67.30053711 C-28.77740587 62.93669919 -28.83069279 58.57434569 -28.85389519 54.20948219 C-28.87040897 52.55205751 -28.90265768 50.89470585 -28.95157051 49.23792076 C-29.18826337 40.88128997 -29.18503481 34.45215705 -23.64868164 27.63256836 C-22.12833234 26.05961034 -20.58114937 24.51182857 -19 23 C-17.89941544 21.73919987 -16.80973444 20.46858115 -15.7421875 19.1796875 C-14.78744593 18.07726892 -13.83173504 16.97568899 -12.875 15.875 C-8.82995243 11.20446941 -4.95327924 6.46841688 -1.3046875 1.4765625 C-0.87414062 0.98929688 -0.44359375 0.50203125 0 0 Z " fill="#FCFDFE" transform="translate(249,191)"/>
<path d="M0 0 C3.56211371 3.0673757 5.71837221 6.38765559 6.671875 10.9609375 C6.93051112 14.71116124 6.26944178 16.90444897 4.375 20.125 C0.79251784 23.91516228 -4.04384155 25.87227318 -8.75 27.9375 C-8.45351562 28.66324219 -8.15703125 29.38898438 -7.8515625 30.13671875 C-6.86060168 32.65628934 -5.96940795 35.17839396 -5.125 37.75 C-4.86460937 38.54019531 -4.60421875 39.33039063 -4.3359375 40.14453125 C-4.14257812 40.73621094 -3.94921875 41.32789063 -3.75 41.9375 C-4.78060547 42.42669922 -4.78060547 42.42669922 -5.83203125 42.92578125 C-6.73308594 43.36277344 -7.63414062 43.79976562 -8.5625 44.25 C-9.45582031 44.67925781 -10.34914063 45.10851562 -11.26953125 45.55078125 C-13.55086088 46.82617025 -14.94679672 48.09604695 -16.75 49.9375 C-19.17212735 49.60341347 -21.21639076 48.75730357 -23.5 47.875 C-27.42860645 47.95055012 -28.33719903 48.77635433 -31.25 51.3125 C-33.38940573 53.44445344 -33.38940573 53.44445344 -34.75 55.9375 C-34.62684444 58.50677989 -33.98452307 60.48653005 -33.16015625 62.9140625 C-32.95712891 63.91566406 -32.95712891 63.91566406 -32.75 64.9375 C-34.875 67.5 -34.875 67.5 -37.75 69.9375 C-38.9424188 71.92407491 -38.9424188 71.92407491 -39.9296875 74.08984375 C-40.44764893 75.17060181 -40.44764893 75.17060181 -40.97607422 76.27319336 C-41.35916748 77.09702515 -41.35916748 77.09702515 -41.75 77.9375 C-43.22146484 77.19306641 -43.22146484 77.19306641 -44.72265625 76.43359375 C-53.98918445 71.76333752 -63.32202424 67.2722015 -72.75 62.9375 C-73.04648438 63.84757812 -73.34296875 64.75765625 -73.6484375 65.6953125 C-74.84415934 69.21463565 -76.2541381 72.53781386 -77.75 75.9375 C-76.87134277 76.20933105 -75.99268555 76.48116211 -75.08740234 76.76123047 C-71.95626233 77.86480271 -69.25144947 79.15434559 -66.3515625 80.7578125 C-64.89169922 81.56025391 -64.89169922 81.56025391 -63.40234375 82.37890625 C-62.40332031 82.93449219 -61.40429688 83.49007812 -60.375 84.0625 C-59.35277344 84.62582031 -58.33054688 85.18914062 -57.27734375 85.76953125 C-54.76574208 87.1544331 -52.25676281 88.54386455 -49.75 89.9375 C-50.29723683 93.31212715 -50.8049 95.01985 -52.75 97.9375 C-53.20394552 100.21662938 -53.20394552 100.21662938 -53.375 102.625 C-53.560625 104.7596875 -53.560625 104.7596875 -53.75 106.9375 C-58.205 107.4325 -58.205 107.4325 -62.75 107.9375 C-63.74 112.8875 -64.73 117.8375 -65.75 122.9375 C-62.78 123.9275 -62.78 123.9275 -59.75 124.9375 C-58.75 125.9375 -58.75 125.9375 -58.5625 129.375 C-58.75 132.9375 -58.75 132.9375 -60.75 134.9375 C-64.75225594 132.73279283 -68.75411226 130.52736255 -72.75561523 128.32128906 C-74.11423212 127.57239686 -75.47295409 126.82369528 -76.83178711 126.07519531 C-78.79569357 124.99335187 -80.75920901 123.91080161 -82.72265625 122.828125 C-83.32086685 122.49878967 -83.91907745 122.16945435 -84.53541565 121.83013916 C-88.62982656 119.57122737 -92.69452708 117.26526447 -96.75 114.9375 C-96.82442057 111.06763042 -96.79702186 107.6639085 -95.75 103.9375 C-94.67516357 103.760979 -93.60032715 103.58445801 -92.49291992 103.40258789 C-88.50618224 102.74717999 -84.51998165 102.08855487 -80.53393555 101.42895508 C-78.80849461 101.14389634 -77.08290915 100.85971093 -75.35717773 100.57641602 C-72.87705614 100.16912541 -70.39747079 99.75869955 -67.91796875 99.34765625 C-67.14599655 99.22157486 -66.37402435 99.09549347 -65.57865906 98.96559143 C-62.53807888 98.45898744 -59.67980106 97.91410035 -56.75 96.9375 C-57.58249268 96.4935791 -58.41498535 96.0496582 -59.27270508 95.59228516 C-62.3651626 93.94231236 -65.45687546 92.29096074 -68.5480957 90.63867188 C-69.8853653 89.92425127 -71.22292812 89.21037925 -72.56079102 88.49707031 C-74.4853147 87.47084825 -76.40877035 86.44264881 -78.33203125 85.4140625 C-79.48936768 84.79611816 -80.6467041 84.17817383 -81.83911133 83.54150391 C-84.75 81.9375 -84.75 81.9375 -87.75 79.9375 C-87.14368083 75.97600535 -85.90202596 72.95026471 -84.02734375 69.41796875 C-83.48916016 68.39638672 -82.95097656 67.37480469 -82.39648438 66.32226562 C-81.83251953 65.26716797 -81.26855469 64.21207031 -80.6875 63.125 C-80.11966797 62.05056641 -79.55183594 60.97613281 -78.96679688 59.86914062 C-77.56685582 57.22219325 -76.16109888 54.57851101 -74.75 51.9375 C-70.93649559 52.52815668 -68.09197103 53.64077117 -64.73046875 55.51953125 C-63.79009766 56.03966797 -62.84972656 56.55980469 -61.88085938 57.09570312 C-60.90955078 57.64162109 -59.93824219 58.18753906 -58.9375 58.75 C-57.0150524 59.82032173 -55.09188692 60.88935516 -53.16796875 61.95703125 C-52.25192871 62.46572754 -51.33588867 62.97442383 -50.39208984 63.49853516 C-46.88815101 65.40688994 -43.3344132 67.18559154 -39.75 68.9375 C-40.31847656 67.7515625 -40.88695312 66.565625 -41.47265625 65.34375 C-45.33169942 57.26584417 -49.1627982 49.17502413 -52.8125 41 C-53.2602478 40.01773438 -53.2602478 40.01773438 -53.71704102 39.015625 C-55.19010731 35.67474053 -55.75 33.66957032 -55.75 29.9375 C-53.125 27.0625 -53.125 27.0625 -49.75 24.9375 C-45.06940487 26.03798969 -40.86838262 28.24543064 -36.6015625 30.4140625 C-35.61547501 30.90922867 -35.61547501 30.90922867 -34.60946655 31.41439819 C-32.52938683 32.45999397 -30.45217356 33.5111447 -28.375 34.5625 C-26.95721762 35.2764119 -25.53925062 35.9899573 -24.12109375 36.703125 C-20.66191323 38.44368572 -17.20529063 40.18923082 -13.75 41.9375 C-14.4749943 38.1094833 -16.14726744 34.94759617 -17.91015625 31.4921875 C-18.21948593 30.88110138 -18.52881561 30.27001526 -18.84751892 29.64041138 C-19.83200649 27.69579635 -20.82161216 25.75386074 -21.8125 23.8125 C-23.12044266 21.2496778 -24.42314598 18.68429374 -25.72265625 16.1171875 C-26.30281494 14.98007324 -26.88297363 13.84295898 -27.48071289 12.67138672 C-28.75 9.9375 -28.75 9.9375 -28.75 7.9375 C-25.93048975 6.4104157 -23.09256715 4.92115966 -20.25 3.4375 C-19.45851563 3.00824219 -18.66703125 2.57898438 -17.8515625 2.13671875 C-11.74768315 -1.01528452 -6.71229076 -2.59338507 0 0 Z " fill="#1F3161" transform="translate(200.75,103.0625)"/>
<path d="M0 0 C13.04680244 -0.61382274 25.64427952 1.35915612 37.83740234 6.12109375 C38.76939453 6.48074219 39.70138672 6.84039062 40.66162109 7.2109375 C66.75607004 17.66876403 86.51399066 36.58156793 98.52880859 61.97265625 C109.51286564 88.39996962 110.0156555 117.55540794 99.61474609 144.25341797 C88.68786848 170.50675144 68.10423292 190.36661178 41.99853516 201.26464844 C15.35299484 211.82413278 -13.91886181 210.99611672 -40.19873047 199.89575195 C-65.96256437 188.46222258 -84.80137489 166.94870488 -95.16259766 141.12109375 C-99.80311084 128.58065932 -101.55569494 116.14248123 -101.53759766 102.80859375 C-101.53671143 101.62595947 -101.5358252 100.4433252 -101.53491211 99.22485352 C-101.41295831 90.20584365 -100.17660628 82.65151667 -97.16259766 74.12109375 C-96.74297552 72.45516874 -96.32608412 70.78855224 -95.91259766 69.12109375 C-87.9407655 43.56061604 -67.32188386 23.06470626 -44.29150391 10.5625 C-41.61638356 9.28655107 -38.93126835 8.17836086 -36.16259766 7.12109375 C-35.05916016 6.68023437 -33.95572266 6.239375 -32.81884766 5.78515625 C-22.02698791 1.79585767 -11.43403818 0.64024418 0 0 Z M-11.16259766 5.12109375 C-12.42072266 5.22421875 -13.67884766 5.32734375 -14.97509766 5.43359375 C-38.69920453 8.00244609 -61.31947735 23.65678913 -76.15405273 41.76489258 C-84.81813047 52.82230624 -90.48030794 64.5768301 -94.16259766 78.12109375 C-94.50548828 79.08917969 -94.84837891 80.05726563 -95.20166016 81.0546875 C-100.22439985 97.08253571 -98.56625528 117.39678569 -93.16259766 133.12109375 C-92.94829102 133.78254395 -92.73398438 134.44399414 -92.51318359 135.12548828 C-84.21794158 160.62098101 -66.77575785 181.08041514 -43.00219727 193.44433594 C-36.885835 196.52288351 -30.81435829 199.40966306 -24.16259766 201.12109375 C-23.23576172 201.39695312 -22.30892578 201.6728125 -21.35400391 201.95703125 C4.4401376 208.70747885 31.73336717 203.05715137 54.61474609 190.15625 C80.22000316 173.98614221 95.01998427 150.29040165 101.83740234 121.12109375 C106.98026148 96.14608407 99.36395666 69.46331277 85.96240234 48.37109375 C70.3822441 26.36569504 48.0368925 10.30730308 21.23974609 5.62890625 C20.11697266 5.46132812 18.99419922 5.29375 17.83740234 5.12109375 C16.75201172 4.93546875 15.66662109 4.74984375 14.54833984 4.55859375 C9.85619863 4.005415 5.24462499 3.9754986 0.52490234 3.99609375 C-0.38066406 3.99222656 -1.28623047 3.98835937 -2.21923828 3.984375 C-3.51571289 3.98630859 -3.51571289 3.98630859 -4.83837891 3.98828125 C-5.62124268 3.98940918 -6.40410645 3.99053711 -7.21069336 3.99169922 C-9.24284811 3.99993932 -9.24284811 3.99993932 -11.16259766 5.12109375 Z " fill="#3F73AD" transform="translate(247.16259765625,144.87890625)"/>
<path d="M0 0 C1.37478516 0.01740234 1.37478516 0.01740234 2.77734375 0.03515625 C3.69644531 0.04417969 4.61554688 0.05320312 5.5625 0.0625 C6.27277344 0.07410156 6.98304688 0.08570312 7.71484375 0.09765625 C11.13621017 7.49085646 14.0670477 15.0492297 16.96484375 22.66015625 C17.65320313 24.45936523 17.65320313 24.45936523 18.35546875 26.29492188 C19.47741754 29.22835047 20.59715396 32.16260286 21.71484375 35.09765625 C23.86856031 31.86708142 24.67311572 29.22090263 25.73828125 25.49609375 C26.12299305 24.18859448 26.50843158 22.88130886 26.89453125 21.57421875 C27.4966134 19.51767955 28.0934037 17.46009589 28.67773438 15.3984375 C29.24528258 13.40537524 29.83371866 11.41948937 30.42578125 9.43359375 C30.76915527 8.2429834 31.1125293 7.05237305 31.46630859 5.82568359 C32.71484375 3.09765625 32.71484375 3.09765625 34.68603516 2.14306641 C37.38828923 2.08258274 39.29437065 2.95465507 41.71484375 4.09765625 C41.53308594 4.7525 41.35132813 5.40734375 41.1640625 6.08203125 C39.24157333 13.06214579 37.4447838 20.06747435 35.71484375 27.09765625 C36.50918823 26.51479858 36.50918823 26.51479858 37.31958008 25.92016602 C39.71926133 24.1628197 42.12323166 22.41143546 44.52734375 20.66015625 C45.36072266 20.04849609 46.19410156 19.43683594 47.05273438 18.80664062 C47.85517578 18.22333984 48.65761719 17.64003906 49.484375 17.0390625 C50.59196167 16.22997437 50.59196167 16.22997437 51.72192383 15.40454102 C53.71484375 14.09765625 53.71484375 14.09765625 56.71484375 13.09765625 C57.04484375 11.77765625 57.37484375 10.45765625 57.71484375 9.09765625 C60.35484375 9.75765625 62.99484375 10.41765625 65.71484375 11.09765625 C63.73010061 20.05735384 60.98768062 28.72501335 58.14038086 37.44189453 C57.84268799 38.35825684 57.54499512 39.27461914 57.23828125 40.21875 C56.96935059 41.03786865 56.70041992 41.8569873 56.42333984 42.70092773 C55.69938457 45.14995217 55.17775858 47.5873624 54.71484375 50.09765625 C51.74484375 49.43765625 48.77484375 48.77765625 45.71484375 48.09765625 C47.62556599 39.93366124 49.95006814 32.01305445 52.71484375 24.09765625 C51.32072266 25.09345703 51.32072266 25.09345703 49.8984375 26.109375 C47.41927083 27.88020833 44.94010417 29.65104167 42.4609375 31.421875 C41.84718262 31.86321777 41.23342773 32.30456055 40.60107422 32.75927734 C39.31949275 33.66862625 38.02625579 34.56172301 36.72314453 35.43994141 C32.78674129 38.00542886 32.78674129 38.00542886 30.71484375 42.09765625 C29.58046875 41.95328125 28.44609375 41.80890625 27.27734375 41.66015625 C22.76131319 41.09464258 18.23937194 40.58990816 13.71484375 40.09765625 C12.45819397 37.19165364 11.71484375 35.30161041 11.71484375 32.09765625 C6.43484375 32.09765625 1.15484375 32.09765625 -4.28515625 32.09765625 C-4.94515625 35.06765625 -5.60515625 38.03765625 -6.28515625 41.09765625 C-9.25515625 41.09765625 -12.22515625 41.09765625 -15.28515625 41.09765625 C-13.75853658 33.28136355 -11.38069278 25.78813758 -8.91674805 18.22900391 C-8.21569551 16.07628191 -7.52248698 13.92114084 -6.83007812 11.765625 C-3.06501475 0.13098354 -3.06501475 0.13098354 0 0 Z " fill="#203261" transform="translate(244.28515625,89.90234375)"/>
<path d="M0 0 C0 0.99 0 1.98 0 3 C1.98 3 3.96 3 6 3 C6.33 5.31 6.66 7.62 7 10 C7.66 8.68 8.32 7.36 9 6 C10.98 6.66 12.96 7.32 15 8 C15.125 14.75 15.125 14.75 14 17 C14.185625 17.825 14.37125 18.65 14.5625 19.5 C14.706875 20.325 14.85125 21.15 15 22 C14.34 22.66 13.68 23.32 13 24 C13.495 24.86625 13.495 24.86625 14 25.75 C15 28 15 28 15 32 C12.35261084 33.4606285 11.10551666 34 8 34 C8.33 33.01 8.66 32.02 9 31 C8.01 30.505 8.01 30.505 7 30 C7.020625 30.94875 7.04125 31.8975 7.0625 32.875 C7 36 7 36 6 38 C4.02 38 2.04 38 0 38 C-0.33 38.99 -0.66 39.98 -1 41 C-1.99 41 -2.98 41 -4 41 C-4 41.66 -4 42.32 -4 43 C-4.66 43 -5.32 43 -6 43 C-6 42.34 -6 41.68 -6 41 C-7.32 40.67 -8.64 40.34 -10 40 C-10 39.34 -10 38.68 -10 38 C-11.98 38 -13.96 38 -16 38 C-16.33 35.36 -16.66 32.72 -17 30 C-17.495 30.495 -17.495 30.495 -18 31 C-18 31.99 -18 32.98 -18 34 C-20.38564077 33.42415568 -22.66682784 32.77772405 -25 32 C-25.125 29.125 -25.125 29.125 -25 26 C-24.34 25.34 -23.68 24.68 -23 24 C-23.66 23.34 -24.32 22.68 -25 22 C-24.69496569 19.99548879 -24.35919321 17.99551782 -24 16 C-24.39938767 13.90178785 -24.39938767 13.90178785 -25 12 C-25 10.68 -25 9.36 -25 8 C-22.35261084 6.5393715 -21.10551666 6 -18 6 C-17.67 7.32 -17.34 8.64 -17 10 C-16.67 7.69 -16.34 5.38 -16 3 C-14 3 -12 3 -10 3 C-9.896875 2.360625 -9.79375 1.72125 -9.6875 1.0625 C-9.460625 0.381875 -9.23375 -0.29875 -9 -1 C-5.23375329 -2.25541557 -3.62811066 -1.37061958 0 0 Z " fill="#B6BDCC" transform="translate(130,284)"/>
<path d="M0 0 C0.11633933 4.22893468 0.18729952 8.45745674 0.25 12.6875 C0.30027344 14.48477539 0.30027344 14.48477539 0.3515625 16.31835938 C0.36445313 17.47529297 0.37734375 18.63222656 0.390625 19.82421875 C0.41157227 20.88729248 0.43251953 21.95036621 0.45410156 23.0456543 C-0.11414047 26.7425881 -1.38667782 28.37045517 -4 31 C-7.56471391 32.18823797 -10.2558336 32.26274852 -14 32 C-16.4375 30.5 -16.4375 30.5 -18 29 C-18.433125 29.639375 -18.86625 30.27875 -19.3125 30.9375 C-21 33 -21 33 -24 34 C-29.01571668 34.49334918 -31.02187555 34.59774272 -35.375 31.9375 C-40.69846771 25.98028613 -40.37447337 18.69834303 -40.625 11.0625 C-40.66367187 10.09248047 -40.70234375 9.12246094 -40.7421875 8.12304688 C-40.83575076 5.74887924 -40.92149208 3.37470508 -41 1 C-27.36768465 -0.41110843 -13.68590943 -0.0962545 0 0 Z " fill="#1E3060" transform="translate(398,216)"/>
<path d="M0 0 C0.66 0 1.32 0 2 0 C2 0.66 2 1.32 2 2 C3.32 2 4.64 2 6 2 C6 2.99 6 3.98 6 5 C6.78375 4.938125 7.5675 4.87625 8.375 4.8125 C9.674375 4.9053125 9.674375 4.9053125 11 5 C11.99 6.485 11.99 6.485 13 8 C15.05925139 8.72382467 15.05925139 8.72382467 17 9 C17 9.66 17 10.32 17 11 C17.99 11 18.98 11 20 11 C20 14 20 17 20 20 C20.226875 20.639375 20.45375 21.27875 20.6875 21.9375 C20.8421875 22.9584375 20.8421875 22.9584375 21 24 C19.6875 25.75 19.6875 25.75 18 27 C17.34 27 16.68 27 16 27 C16.33 27.33 16.66 27.66 17 28 C17.99 28 18.98 28 20 28 C20.1875 30.875 20.1875 30.875 20 34 C17 36 17 36 14 36 C14 35.34 14 34.68 14 34 C14.66 34 15.32 34 16 34 C16 33.34 16 32.68 16 32 C15.34 31.67 14.68 31.34 14 31 C14 30.67 14 30.34 14 30 C12.68 30.33 11.36 30.66 10 31 C10.99 31.66 11.98 32.32 13 33 C12.125 37.75 12.125 37.75 11 40 C6.44615385 40.36923077 6.44615385 40.36923077 4.1875 38.5 C3.795625 38.005 3.40375 37.51 3 37 C3.66 35.02 4.32 33.04 5 31 C4.01 31 3.02 31 2 31 C2.66 31.33 3.32 31.66 4 32 C4 32.66 4 33.32 4 34 C3.01 34.495 3.01 34.495 2 35 C2 36.32 2 37.64 2 39 C2 39.99 2 40.98 2 42 C2.66 42 3.32 42 4 42 C4.33 41.34 4.66 40.68 5 40 C5 40.99 5 41.98 5 43 C4.01 43 3.02 43 2 43 C2 43.66 2 44.32 2 45 C1.34 45 0.68 45 0 45 C0 44.34 0 43.68 0 43 C-1.32 43 -2.64 43 -4 43 C-4 42.01 -4 41.02 -4 40 C-5.423125 40.0928125 -5.423125 40.0928125 -6.875 40.1875 C-7.90625 40.125625 -8.9375 40.06375 -10 40 C-10.66 39.01 -11.32 38.02 -12 37 C-14.05925139 36.27617533 -14.05925139 36.27617533 -16 36 C-16 35.34 -16 34.68 -16 34 C-16.99 34 -17.98 34 -19 34 C-19 31 -19 28 -19 25 C-19.33 24.01 -19.66 23.02 -20 22 C-19.67 21.38125 -19.34 20.7625 -19 20.125 C-17.70019392 17.36291208 -18.23837745 15.8941657 -19 13 C-19 12.34 -19 11.68 -19 11 C-18.01 11 -17.02 11 -16 11 C-16 10.34 -16 9.68 -16 9 C-15.38125 8.896875 -14.7625 8.79375 -14.125 8.6875 C-11.63473516 8.12474627 -11.63473516 8.12474627 -10 5 C-6.875 4.8125 -6.875 4.8125 -4 5 C-4 4.01 -4 3.02 -4 2 C-2.68 2 -1.36 2 0 2 C0 1.34 0 0.68 0 0 Z " fill="#B6BDCC" transform="translate(374,287)"/>
<path d="M0 0 C38.5016834 -3.50706461 38.5016834 -3.50706461 47.35986328 2.14306641 C52.04163611 7.3273551 57 15.71353111 57 23 C51.79013471 23.29939549 46.58538541 23.51556707 41.36889648 23.65917969 C39.60010502 23.71908959 37.83189688 23.80066228 36.06518555 23.90527344 C20.61703917 24.79626068 20.61703917 24.79626068 15.47973633 20.4753418 C12.61396256 17.58185937 10.3081092 14.35189555 8 11 C6.45059097 9.09345287 4.89023322 7.19567502 3.3125 5.3125 C0 1.1503006 0 1.1503006 0 0 Z " fill="#FDFEFE" transform="translate(262,201)"/>
<path d="M0 0 C2.08315357 0.06526049 4.1665027 0.12456724 6.25 0.17773438 C11.33818151 0.32051709 16.4169407 0.544453 21.5 0.8125 C20.5674877 2.0674737 19.63332049 3.3212178 18.69848633 4.57446289 C17.91843987 5.62193443 17.91843987 5.62193443 17.12263489 6.69056702 C14.60276826 9.98581733 11.90609576 13.11836728 9.1875 16.25 C8.65060547 16.87326172 8.11371094 17.49652344 7.56054688 18.13867188 C3.70076885 22.61173115 3.70076885 22.61173115 2.5 23.8125 C-0.3116338 23.90111992 -3.09858255 23.92772355 -5.91015625 23.91015625 C-6.75219101 23.9087413 -7.59422577 23.90732635 -8.46177673 23.90586853 C-11.16205335 23.90025263 -13.86224828 23.88769748 -16.5625 23.875 C-18.38867068 23.86998705 -20.21484266 23.86542379 -22.04101562 23.86132812 C-26.52737542 23.85027804 -31.01367384 23.83300279 -35.5 23.8125 C-34.40298634 21.47607188 -33.26483794 19.18088897 -32.05664062 16.89916992 C-30.41920527 13.79109205 -30.41920527 13.79109205 -29.17773438 10.2824707 C-23.26732274 -2.94216643 -12.59358922 -0.68387319 0 0 Z " fill="#FDFEFE" transform="translate(216.5,200.1875)"/>
<path d="M0 0 C10.23 0 20.46 0 31 0 C31 9.9 31 19.8 31 30 C20.77 30 10.54 30 0 30 C0 20.1 0 10.2 0 0 Z " fill="#E2F2FE" transform="translate(282,269)"/>
<path d="M0 0 C10.23 0 20.46 0 31 0 C31 9.9 31 19.8 31 30 C20.77 30 10.54 30 0 30 C0 20.1 0 10.2 0 0 Z " fill="#DEF0FE" transform="translate(187,269)"/>
<path d="M0 0 C3.56211371 3.0673757 5.71837221 6.38765559 6.671875 10.9609375 C6.93051112 14.71116124 6.26944178 16.90444897 4.375 20.125 C0.79251784 23.91516228 -4.04384155 25.87227318 -8.75 27.9375 C-8.45351562 28.66324219 -8.15703125 29.38898438 -7.8515625 30.13671875 C-6.86060168 32.65628934 -5.96940795 35.17839396 -5.125 37.75 C-4.86460937 38.54019531 -4.60421875 39.33039063 -4.3359375 40.14453125 C-4.14257812 40.73621094 -3.94921875 41.32789063 -3.75 41.9375 C-9.5 44.9375 -9.5 44.9375 -11.75 44.9375 C-12.05180176 44.30360352 -12.35360352 43.66970703 -12.66455078 43.01660156 C-14.06685041 40.07300196 -15.4706952 37.13014352 -16.875 34.1875 C-17.37620361 33.13667236 -17.87740723 32.08584473 -18.39379883 31.00317383 C-21.45229397 24.60552862 -24.56125195 18.24536595 -27.82421875 11.94921875 C-28.75 9.9375 -28.75 9.9375 -28.75 7.9375 C-25.93048975 6.4104157 -23.09256715 4.92115966 -20.25 3.4375 C-19.45851562 3.00824219 -18.66703125 2.57898438 -17.8515625 2.13671875 C-11.74768315 -1.01528452 -6.71229076 -2.59338507 0 0 Z " fill="#203262" transform="translate(200.75,103.0625)"/>
<path d="M0 0 C2.5625 2.25 2.5625 2.25 5 5 C4.85025535 7.70277372 4.25732039 8.74677002 2.32592773 10.64746094 C1.61895752 11.17114258 0.9119873 11.69482422 0.18359375 12.234375 C-0.58017578 12.80800781 -1.34394531 13.38164062 -2.13085938 13.97265625 C-2.93330078 14.55917969 -3.73574219 15.14570313 -4.5625 15.75 C-5.36880859 16.35199219 -6.17511719 16.95398438 -7.00585938 17.57421875 C-8.99720696 19.05889209 -10.99520894 20.53355887 -13 22 C2.2031082 22.61628337 2.2031082 22.61628337 17 20 C18.32 21.65 19.64 23.3 21 25 C19.45604245 29.26567759 16.24781751 31.43369666 12.75 34.0625 C11.49201026 35.02841504 10.23420345 35.99456837 8.9765625 36.9609375 C8.3259082 37.4569043 7.67525391 37.95287109 7.00488281 38.46386719 C3.68646287 41.00642664 0.40762801 43.59901281 -2.875 46.1875 C-4.05971199 47.11872351 -5.24459069 48.04973501 -6.4296875 48.98046875 C-7.27789062 49.64691406 -8.12609375 50.31335938 -9 51 C-11.46800047 49.84826645 -13.04783565 48.95216435 -15 47 C-14.77170597 44.57596552 -14.32623661 43.34580845 -12.64892578 41.56787109 C-12.0867334 41.14070801 -11.52454102 40.71354492 -10.9453125 40.2734375 C-10.33042969 39.7990625 -9.71554687 39.3246875 -9.08203125 38.8359375 C-8.43621094 38.35382813 -7.79039062 37.87171875 -7.125 37.375 C-6.48691406 36.88515625 -5.84882813 36.3953125 -5.19140625 35.890625 C-2.50558153 33.8384082 0.18586514 31.87608991 3 30 C-1.24998566 29.97097004 -5.49994581 29.95319113 -9.75 29.9375 C-10.9565625 29.92912109 -12.163125 29.92074219 -13.40625 29.91210938 C-14.56640625 29.90888672 -15.7265625 29.90566406 -16.921875 29.90234375 C-17.99018555 29.89710693 -19.05849609 29.89187012 -20.15917969 29.88647461 C-22.62389235 29.98496992 -24.65245467 30.28434536 -27 31 C-28.32 29.02 -29.64 27.04 -31 25 C-23.45343572 18.50328509 -15.80850105 12.21095017 -7.875 6.19140625 C-5.21733931 4.16566216 -2.60041103 2.09849346 0 0 Z " fill="#1E3160" transform="translate(356,133)"/>
<path d="M0 0 C1.37478516 0.01740234 1.37478516 0.01740234 2.77734375 0.03515625 C3.69644531 0.04417969 4.61554688 0.05320312 5.5625 0.0625 C6.27277344 0.07410156 6.98304688 0.08570312 7.71484375 0.09765625 C11.085727 7.42467865 14.05631084 14.88940036 16.96484375 22.41015625 C17.65320313 24.1590918 17.65320313 24.1590918 18.35546875 25.94335938 C18.78859375 27.06291016 19.22171875 28.18246094 19.66796875 29.3359375 C20.06145508 30.34696533 20.45494141 31.35799316 20.86035156 32.3996582 C21.71484375 35.09765625 21.71484375 35.09765625 21.71484375 39.09765625 C19.07484375 39.42765625 16.43484375 39.75765625 13.71484375 40.09765625 C12.45819397 37.19165364 11.71484375 35.30161041 11.71484375 32.09765625 C6.43484375 32.09765625 1.15484375 32.09765625 -4.28515625 32.09765625 C-4.94515625 35.06765625 -5.60515625 38.03765625 -6.28515625 41.09765625 C-9.25515625 41.09765625 -12.22515625 41.09765625 -15.28515625 41.09765625 C-13.75853658 33.28136355 -11.38069278 25.78813758 -8.91674805 18.22900391 C-8.21569551 16.07628191 -7.52248698 13.92114084 -6.83007812 11.765625 C-3.06501475 0.13098354 -3.06501475 0.13098354 0 0 Z " fill="#1F3161" transform="translate(244.28515625,89.90234375)"/>
<path d="M0 0 C0 2.97 0 5.94 0 9 C-4.455 9.495 -4.455 9.495 -9 10 C-9.99 14.95 -10.98 19.9 -12 25 C-10.02 25.66 -8.04 26.32 -6 27 C-5 28 -5 28 -4.8125 31.4375 C-5 35 -5 35 -7 37 C-11.00225594 34.79529283 -15.00411226 32.58986255 -19.00561523 30.38378906 C-20.36423212 29.63489686 -21.72295409 28.88619528 -23.08178711 28.13769531 C-25.04569357 27.05585187 -27.00920901 25.97330161 -28.97265625 24.890625 C-29.57086685 24.56128967 -30.16907745 24.23195435 -30.78541565 23.89263916 C-34.87982656 21.63372737 -38.94452708 19.32776447 -43 17 C-43.07442057 13.13013042 -43.04702186 9.7264085 -42 6 C-36.98396619 5.13919274 -31.96688079 4.28490538 -26.94873047 3.43652344 C-25.24335105 3.14727866 -23.53826734 2.85628453 -21.83349609 2.56347656 C-19.37674233 2.14182705 -16.91897819 1.72657282 -14.4609375 1.3125 C-13.32620499 1.11563599 -13.32620499 1.11563599 -12.16854858 0.91479492 C-8.06130126 0.22982301 -4.18222429 -0.13882902 0 0 Z " fill="#203261" transform="translate(147,201)"/>
<path d="M0 0 C1.5415101 3.88796648 3.05450291 7.78642581 4.5625 11.6875 C5.21895508 13.34168945 5.21895508 13.34168945 5.88867188 15.02929688 C6.50258789 16.6293457 6.50258789 16.6293457 7.12890625 18.26171875 C7.51119385 19.24100342 7.89348145 20.22028809 8.28735352 21.22924805 C9.06409334 24.24919334 8.85469852 26.03341483 8 29 C6.35 29.33 4.7 29.66 3 30 C-2.37129841 17.51480638 -2.37129841 17.51480638 -4 11 C-6.64 11.66 -9.28 12.32 -12 13 C-11.566875 14.12019531 -11.13375 15.24039063 -10.6875 16.39453125 C-10.12473947 17.86708796 -9.56225376 19.33974972 -9 20.8125 C-8.71382813 21.55048828 -8.42765625 22.28847656 -8.1328125 23.04882812 C-7.86210937 23.76103516 -7.59140625 24.47324219 -7.3125 25.20703125 C-7.06113281 25.8616333 -6.80976563 26.51623535 -6.55078125 27.19067383 C-6 29 -6 29 -6 32 C-8.64738916 33.4606285 -9.89448334 34 -13 34 C-14.98 28.39 -16.96 22.78 -19 17 C-22.3 17.66 -25.6 18.32 -29 19 C-28.4946875 20.25296875 -27.989375 21.5059375 -27.46875 22.796875 C-26.81214227 24.44777443 -26.15591194 26.098824 -25.5 27.75 C-25.16613281 28.575 -24.83226562 29.4 -24.48828125 30.25 C-24.17246094 31.04921875 -23.85664063 31.8484375 -23.53125 32.671875 C-23.23798828 33.4050293 -22.94472656 34.13818359 -22.64257812 34.89355469 C-22 37 -22 37 -22 41 C-23.98 41.66 -25.96 42.32 -28 43 C-29.70549326 38.75700029 -31.38623294 34.5046216 -33.0625 30.25 C-33.79049805 28.44015625 -33.79049805 28.44015625 -34.53320312 26.59375 C-34.98759766 25.43359375 -35.44199219 24.2734375 -35.91015625 23.078125 C-36.33433838 22.00981445 -36.75852051 20.94150391 -37.19555664 19.84082031 C-38.03874294 16.86318274 -38.10567112 15.81524688 -37 13 C-34.41738003 11.70859432 -32.02467695 10.71266713 -29.31640625 9.765625 C-28.16035133 9.34129181 -28.16035133 9.34129181 -26.98094177 8.90838623 C-24.51329104 8.00723354 -22.03815246 7.12889862 -19.5625 6.25 C-17.89727908 5.64331794 -16.23255818 5.03526152 -14.56835938 4.42578125 C-2.38837467 0 -2.38837467 0 0 0 Z " fill="#1F3261" transform="translate(385,173)"/>
<path d="M0 0 C3.791986 0.59054133 6.6363546 1.68686366 9.984375 3.546875 C10.92023438 4.0625 11.85609375 4.578125 12.8203125 5.109375 C13.78710938 5.65078125 14.75390625 6.1921875 15.75 6.75 C16.70132813 7.2759375 17.65265625 7.801875 18.6328125 8.34375 C21.42555322 9.88932158 24.21318337 11.44377767 27 13 C28.73413905 13.96396626 30.46849377 14.9275447 32.203125 15.890625 C33.46875 16.59375 34.734375 17.296875 36 18 C35.50168276 21.68754757 34.89932357 23.60490662 32 26 C31.19780029 25.58113525 30.39560059 25.16227051 29.5690918 24.73071289 C26.59002474 23.17653903 23.60994248 21.62434738 20.62915039 20.07348633 C19.33967545 19.40207733 18.05060927 18.72988267 16.76196289 18.05688477 C14.908787 17.08923416 13.05415566 16.12442583 11.19921875 15.16015625 C10.08377686 14.57886963 8.96833496 13.99758301 7.8190918 13.39868164 C5.02545381 11.93161576 5.02545381 11.93161576 2 11 C1.731875 11.845625 1.46375 12.69125 1.1875 13.5625 C-0.0478595 17.13854067 -1.476988 20.53860908 -3 24 C-2.12134277 24.27183105 -1.24268555 24.54366211 -0.33740234 24.82373047 C2.79373767 25.92730271 5.49855053 27.21684559 8.3984375 28.8203125 C9.37167969 29.35527344 10.34492188 29.89023438 11.34765625 30.44140625 C12.34667969 30.99699219 13.34570312 31.55257812 14.375 32.125 C15.39722656 32.68832031 16.41945312 33.25164062 17.47265625 33.83203125 C19.98425792 35.2169331 22.49323719 36.60636455 25 38 C24.45276317 41.37462715 23.9451 43.08235 22 46 C15.86961574 44.32525759 10.57995641 41.19066199 5.0625 38.125 C4.09892578 37.59519531 3.13535156 37.06539062 2.14257812 36.51953125 C-2.93103075 33.72436464 -7.98010473 30.8904543 -13 28 C-12.39368083 24.03850535 -11.15202596 21.01276471 -9.27734375 17.48046875 C-8.73916016 16.45888672 -8.20097656 15.43730469 -7.64648438 14.38476562 C-7.08251953 13.32966797 -6.51855469 12.27457031 -5.9375 11.1875 C-5.36966797 10.11306641 -4.80183594 9.03863281 -4.21679688 7.93164062 C-2.81685582 5.28469325 -1.41109888 2.64101101 0 0 Z " fill="#1F3161" transform="translate(126,155)"/>
<path d="M0 0 C7.92 0 15.84 0 24 0 C24 9.24 24 18.48 24 28 C16.08 28 8.16 28 0 28 C0 18.76 0 9.52 0 0 Z " fill="#F8FCFE" transform="translate(282,227)"/>
<path d="M0 0 C7.92 0 15.84 0 24 0 C24 9.24 24 18.48 24 28 C16.08 28 8.16 28 0 28 C0 18.76 0 9.52 0 0 Z " fill="#FDFEFF" transform="translate(194,227)"/>
<path d="M0 0 C4.30742759 2.23654894 7.64038378 4.73453991 10 9 C10.79562414 14.30957333 10.64704364 18.60636754 8.375 23.5 C4.51073716 27.5676451 1.05798327 29.1479244 -4.5 29.4375 C-8.98528507 29.27137833 -11.58695604 28.0067292 -15 25 C-18.63107675 21.00581558 -18.4504175 16.74744152 -18.27734375 11.58984375 C-17.91792203 8.2335536 -17.326207 6.47628487 -15 4 C-9.80200607 0.22890637 -6.39103136 -0.81155954 0 0 Z " fill="#FAFCFE" transform="translate(254,212)"/>
<path d="M0 0 C2.37152767 0.91801071 3.70568251 1.47213503 4.96484375 3.73046875 C5 6 5 6 2.7265625 8.69140625 C1.70477298 9.66130802 0.67026125 10.61794075 -0.375 11.5625 C-4.49227868 15.19830904 -4.49227868 15.19830904 -7 20 C-2.10370365 17.34028346 1.10544156 13.85604708 4.81640625 9.765625 C7 8 7 8 9.27734375 8.234375 C11 9 11 9 11.8359375 10.65234375 C12 13 12 13 9.7265625 15.69140625 C8.70477298 16.66130802 7.67026125 17.61794075 6.625 18.5625 C2.50772132 22.19830904 2.50772132 22.19830904 0 27 C0.74443359 26.34644531 0.74443359 26.34644531 1.50390625 25.6796875 C5.97819019 21.75726021 10.47564042 17.86455714 15 14 C16.32 15.65 17.64 17.3 19 19 C13.06 24.94 7.12 30.88 1 37 C-3.45260903 33.18347797 -7.79063771 29.43566199 -12 25.375 C-12.50144531 24.9109375 -13.00289062 24.446875 -13.51953125 23.96875 C-14.9375 22.5859375 -14.9375 22.5859375 -17 20 C-17.01967511 17.28975333 -16.39434598 16.41448731 -14.546875 14.47265625 C-13.95390625 14.00730469 -13.3609375 13.54195313 -12.75 13.0625 C-7.92511397 9.13549665 -3.80534709 4.93285735 0 0 Z " fill="#1E3060" transform="translate(142,335)"/>
<path d="M0 0 C6.05024406 2.20200822 11.01852848 5.83705743 16.3125 9.4375 C17.33923828 10.11876953 18.36597656 10.80003906 19.42382812 11.50195312 C20.39384766 12.16001953 21.36386719 12.81808594 22.36328125 13.49609375 C23.25313721 14.09607178 24.14299316 14.6960498 25.05981445 15.31420898 C25.70007568 15.87052002 26.34033691 16.42683105 27 17 C27 20 27 20 25 22.1875 C24.34 22.785625 23.68 23.38375 23 24 C22.52949219 23.6390625 22.05898438 23.278125 21.57421875 22.90625 C20.95160156 22.4421875 20.32898438 21.978125 19.6875 21.5 C18.76517578 20.80390625 18.76517578 20.80390625 17.82421875 20.09375 C15.92566995 18.74288717 15.92566995 18.74288717 13 19 C11.19788062 21.02789915 11.19788062 21.02789915 9.49609375 23.70703125 C8.83802734 24.68607422 8.17996094 25.66511719 7.50195312 26.67382812 C6.82068359 27.70958984 6.13941406 28.74535156 5.4375 29.8125 C4.40979492 31.34874023 4.40979492 31.34874023 3.36132812 32.91601562 C1.56482157 35.60460492 -0.21983754 38.30057561 -2 41 C-2.66 41.99 -3.32 42.98 -4 44 C-7.82426669 43.45367619 -9.39231585 41.73916403 -12 39 C-11.5968457 38.43079834 -11.19369141 37.86159668 -10.77832031 37.27514648 C-8.93228934 34.66488414 -7.09111785 32.0512298 -5.25 29.4375 C-4.61578125 28.54224609 -3.9815625 27.64699219 -3.328125 26.72460938 C0.04328105 21.9308914 3.20204423 17.15078221 6 12 C3.03 10.02 0.06 8.04 -3 6 C-2 4 -1 2 0 0 Z " fill="#1F3161" transform="translate(320,107)"/>
<path d="M0 0 C2.31 0 4.62 0 7 0 C7.66 5.94 8.32 11.88 9 18 C11.5678125 17.67515625 11.5678125 17.67515625 14.1875 17.34375 C16.45830182 17.06224564 18.72913693 16.78100981 21 16.5 C22.12535156 16.35691406 23.25070313 16.21382812 24.41015625 16.06640625 C30.323297 15.34023107 36.04263601 14.82478341 42 15 C42.495 18.96 42.495 18.96 43 23 C38.44754327 23.57595011 33.89433194 24.14536578 29.34033203 24.70898438 C27.7942145 24.90124101 26.24830999 25.09521939 24.70263672 25.29101562 C22.46897571 25.57364801 20.23459825 25.84988803 18 26.125 C17.31945557 26.21249512 16.63891113 26.29999023 15.93774414 26.39013672 C11.24872813 26.95902259 6.71233062 27.07363017 2 27 C1.66134859 24.00051609 1.32894927 21.00055074 1 18 C0.90460938 17.16082031 0.80921875 16.32164062 0.7109375 15.45703125 C0.14785091 10.26859055 -0.09664316 5.21873039 0 0 Z " fill="#1F3161" transform="translate(102,239)"/>
<path d="M0 0 C4.29 0 8.58 0 13 0 C13 11.55 13 23.1 13 35 C8.71 35 4.42 35 0 35 C0 23.45 0 11.9 0 0 Z " fill="#FAFDFF" transform="translate(251,266)"/>
<path d="M0 0 C4.29 0 8.58 0 13 0 C13 11.55 13 23.1 13 35 C8.71 35 4.42 35 0 35 C0 23.45 0 11.9 0 0 Z " fill="#FBFDFF" transform="translate(236,266)"/>
<path d="M0 0 C4.39491327 1.1366155 6.06898107 2.18334719 8.625 5.9375 C9.01771377 13.39906154 5.20918563 19.57353404 1.625 25.9375 C0.625 26.9375 0.625 26.9375 -3.125 27.25 C-6.17844905 27.18409822 -7.52757858 26.86438943 -10.375 25.5 C-12.8485668 22.33074253 -13.14803723 20.54399604 -12.9375 16.58984375 C-11.4679356 9.66043937 -8.11103342 -0.15020432 0 0 Z " fill="#203262" transform="translate(201.375,377.0625)"/>
<path d="M0 0 C5.55580866 17.85649203 5.55580866 17.85649203 6 26 C3.375 26.9375 3.375 26.9375 0 27 C-2.38782014 24.9456142 -4.19296794 22.56957396 -6 20 C-5.34 22.64 -4.68 25.28 -4 28 C-6.64738916 29.4606285 -7.89448334 30 -11 30 C-12.00597015 26.23073331 -13.00374802 22.45934588 -14 18.6875 C-14.28617187 17.61564453 -14.57234375 16.54378906 -14.8671875 15.43945312 C-15.13789063 14.41142578 -15.40859375 13.38339844 -15.6875 12.32421875 C-15.93886719 11.37635498 -16.19023437 10.42849121 -16.44921875 9.4519043 C-17 7 -17 7 -17 4 C-14.375 3.0625 -14.375 3.0625 -11 3 C-8.61217986 5.0543858 -6.80703206 7.43042604 -5 10 C-5.165 9.2575 -5.33 8.515 -5.5 7.75 C-6 5 -6 5 -6 1 C-4 0 -4 0 0 0 Z " fill="#203261" transform="translate(300,383)"/>
<path d="M0 0 C0.33 0.66 0.66 1.32 1 2 C4.02934491 2.65772428 4.02934491 2.65772428 7 3 C7 3.99 7 4.98 7 6 C5.02 6.33 3.04 6.66 1 7 C1 8.32 1 9.64 1 11 C2.98 11 4.96 11 7 11 C7 11.66 7 12.32 7 13 C9.31 13.33 11.62 13.66 14 14 C14.20086443 17.71599191 14.1519437 18.77208445 12 22 C9.5625 22.375 9.5625 22.375 7 22 C5.1875 20.5 5.1875 20.5 4 19 C4.66 17.02 5.32 15.04 6 13 C5.01 13 4.02 13 3 13 C3.66 13.33 4.32 13.66 5 14 C5 14.66 5 15.32 5 16 C4.34 16.33 3.68 16.66 3 17 C3 18.32 3 19.64 3 21 C3 21.99 3 22.98 3 24 C3.66 24 4.32 24 5 24 C5.33 23.34 5.66 22.68 6 22 C6 22.99 6 23.98 6 25 C5.01 25 4.02 25 3 25 C3 25.66 3 26.32 3 27 C2.34 27 1.68 27 1 27 C1 26.34 1 25.68 1 25 C-0.32 25 -1.64 25 -3 25 C-3 24.01 -3 23.02 -3 22 C-4.423125 22.0928125 -4.423125 22.0928125 -5.875 22.1875 C-6.90625 22.125625 -7.9375 22.06375 -9 22 C-9.66 21.01 -10.32 20.02 -11 19 C-13.05925139 18.27617533 -13.05925139 18.27617533 -15 18 C-15 17.34 -15 16.68 -15 16 C-15.99 16 -16.98 16 -18 16 C-18 14.02 -18 12.04 -18 10 C-17.01 10.33 -16.02 10.66 -15 11 C-15.33 11.66 -15.66 12.32 -16 13 C-15.34 13 -14.68 13 -14 13 C-13.67 11.68 -13.34 10.36 -13 9 C-13.66 8.67 -14.32 8.34 -15 8 C-13.68 8.33 -12.36 8.66 -11 9 C-10.67 8.34 -10.34 7.68 -10 7 C-9.34 7 -8.68 7 -8 7 C-7.34 6.34 -6.68 5.68 -6 5 C-4 4 -4 4 -1 3 C-0.67 2.01 -0.34 1.02 0 0 Z " fill="#C3C9D5" transform="translate(373,305)"/>
<path d="M0 0 C3.63 0 7.26 0 11 0 C11.67388461 3.20696872 12.33931274 6.41530986 13 9.625 C13.19078125 10.52863281 13.3815625 11.43226563 13.578125 12.36328125 C14.52210398 16.98203556 15.25214768 21.25647172 15 26 C12.69 26 10.38 26 8 26 C8 24.68 8 23.36 8 22 C6.68 22 5.36 22 4 22 C4 23.32 4 24.64 4 26 C1.69 26 -0.62 26 -3 26 C-2.50533254 17.20012626 -1.58626677 8.67159168 0 0 Z " fill="#273866" transform="translate(257,389)"/>
<path d="M0 0 C1.75032844 0.14183696 3.50025534 0.28863429 5.25 0.4375 C6.71179688 0.55931641 6.71179688 0.55931641 8.203125 0.68359375 C10.56461753 0.95074584 12.71901065 1.35371968 15 2 C15.17328307 7.62039873 14.52628199 12.84333966 13.5625 18.375 C13.42779297 19.19355469 13.29308594 20.01210938 13.15429688 20.85546875 C12.1323208 26.8676792 12.1323208 26.8676792 11 28 C9.00041636 28.04080783 6.99954746 28.04254356 5 28 C5.51537952 20.86606248 6.44005901 13.98187183 8 7 C7.01 7.33 6.02 7.66 5 8 C4.06279772 11.49979401 3.53022833 15.00836265 2.94140625 18.58203125 C1.92936057 22.25647098 1.03913735 23.75069496 -2 26 C-4.75 25.75 -4.75 25.75 -7 25 C-7.1875 22.125 -7.1875 22.125 -7 19 C-6.01 18.34 -5.02 17.68 -4 17 C-3.00815566 13.76879087 -3.00815566 13.76879087 -2.375 10.0625 C-1.0391198 3.11735941 -1.0391198 3.11735941 0 0 Z " fill="#213362" transform="translate(226,386)"/>
<path d="M0 0 C2.475 0.99 2.475 0.99 5 2 C5 6 5 6 4 9 C5.32 7.68 6.64 6.36 8 5 C9.32 5.66 10.64 6.32 12 7 C12 8.32 12 9.64 12 11 C10.57421875 12.24609375 10.57421875 12.24609375 8.6875 13.4375 C3.97761013 17.09548288 3.59856839 21.60904981 2.703125 27.26953125 C2.35507813 28.62111328 2.35507813 28.62111328 2 30 C1.01 30.33 0.02 30.66 -1 31 C-3.1875 29.5625 -3.1875 29.5625 -5 28 C-4.67 25.36 -4.34 22.72 -4 20 C-5.98 22.97 -5.98 22.97 -8 26 C-9.65 25.01 -11.3 24.02 -13 23 C-12.44982585 18.52470281 -10.73895717 15.74057462 -8.1875 12.0625 C-7.15689453 10.56396484 -7.15689453 10.56396484 -6.10546875 9.03515625 C-5.06326172 7.53275391 -5.06326172 7.53275391 -4 6 C-2.65834336 4.0054 -1.32859818 2.00334692 0 0 Z " fill="#223463" transform="translate(171,361)"/>
<path d="M0 0 C0 0.99 0 1.98 0 3 C1.98 3 3.96 3 6 3 C6.33730842 4.43657245 6.66969591 5.87430093 7 7.3125 C7.185625 8.11300781 7.37125 8.91351563 7.5625 9.73828125 C8 12 8 12 8 15 C7.34 15 6.68 15 6 15 C5.67 15.99 5.34 16.98 5 18 C4.34 17.67 3.68 17.34 3 17 C2.67 17.66 2.34 18.32 2 19 C1.01 16.03 0.02 13.06 -1 10 C-1.99 10 -2.98 10 -4 10 C-4 10.99 -4 11.98 -4 13 C-4.66 13 -5.32 13 -6 13 C-6.33 12.34 -6.66 11.68 -7 11 C-8.32 11.33 -9.64 11.66 -11 12 C-11 12.99 -11 13.98 -11 15 C-11.66 15 -12.32 15 -13 15 C-13.33 14.34 -13.66 13.68 -14 13 C-16.02463255 12.34786708 -16.02463255 12.34786708 -18 12 C-18 13.98 -18 15.96 -18 18 C-19.32 17.34 -20.64 16.68 -22 16 C-21.34 16 -20.68 16 -20 16 C-20.33 15.01 -20.66 14.02 -21 13 C-21.66 12.67 -22.32 12.34 -23 12 C-22.67 12.99 -22.34 13.98 -22 15 C-22.99 15 -23.98 15 -25 15 C-25 12.69 -25 10.38 -25 8 C-22.35261084 6.5393715 -21.10551666 6 -18 6 C-17.67 7.32 -17.34 8.64 -17 10 C-16.67 7.69 -16.34 5.38 -16 3 C-14 3 -12 3 -10 3 C-9.896875 2.360625 -9.79375 1.72125 -9.6875 1.0625 C-9.460625 0.381875 -9.23375 -0.29875 -9 -1 C-5.23375329 -2.25541557 -3.62811066 -1.37061958 0 0 Z " fill="#7885A1" transform="translate(130,284)"/>
<path d="M0 0 C10.23 0 20.46 0 31 0 C31 3.3 31 6.6 31 10 C20.77 10 10.54 10 0 10 C0 6.7 0 3.4 0 0 Z " fill="#F8FCFF" transform="translate(282,257)"/>
<path d="M0 0 C10.23 0 20.46 0 31 0 C31 3.3 31 6.6 31 10 C20.77 10 10.54 10 0 10 C0 6.7 0 3.4 0 0 Z " fill="#F8FCFF" transform="translate(187,257)"/>
<path d="M0 0 C0.66 0 1.32 0 2 0 C2 0.66 2 1.32 2 2 C3.32 2 4.64 2 6 2 C6 2.99 6 3.98 6 5 C6.78375 4.938125 7.5675 4.87625 8.375 4.8125 C9.674375 4.9053125 9.674375 4.9053125 11 5 C13.1519437 8.22791555 13.20086443 9.28400809 13 13 C11 13 9 13 7 13 C7.33 13.99 7.66 14.98 8 16 C8 15.34 8 14.68 8 14 C10.97 14.495 10.97 14.495 14 15 C13.01 17.475 13.01 17.475 12 20 C10.35 20 8.7 20 7 20 C6.34 18.35 5.68 16.7 5 15 C4.443125 15.185625 3.88625 15.37125 3.3125 15.5625 C0.600867 16.07551165 -1.34371039 15.6640724 -4 15 C-4.99 17.475 -4.99 17.475 -6 20 C-6.33 19.34 -6.66 18.68 -7 18 C-7.66 18 -8.32 18 -9 18 C-9 18.66 -9 19.32 -9 20 C-9.66 20 -10.32 20 -11 20 C-11.95993175 16.26693207 -11.93146599 13.72586394 -11 10 C-10.814375 9.071875 -10.62875 8.14375 -10.4375 7.1875 C-10.293125 6.465625 -10.14875 5.74375 -10 5 C-8.02 5 -6.04 5 -4 5 C-4 4.01 -4 3.02 -4 2 C-2.68 2 -1.36 2 0 2 C0 1.34 0 0.68 0 0 Z " fill="#7F8BA5" transform="translate(374,287)"/>
<path d="M0 0 C2.28697407 2.13450913 2.91176044 3.41173624 3.375 6.5 C3.77623274 9.25948551 3.77623274 9.25948551 6.5625 10.8125 C9 13 9 13 9.6875 16.9375 C9.44674753 20.50866161 8.90721447 21.11089003 6.4375 24.0625 C2.33381192 26.37548783 0.47904428 26.16455151 -4 25 C-4 23.02 -4 21.04 -4 19 C-2.02 19 -0.04 19 2 19 C1.67 17.68 1.34 16.36 1 15 C-0.65 15 -2.3 15 -4 15 C-4.33 13.35 -4.66 11.7 -5 10 C-4.34 10 -3.68 10 -3 10 C-3 8.68 -3 7.36 -3 6 C-3.99 6.33 -4.98 6.66 -6 7 C-6.33 7.99 -6.66 8.98 -7 10 C-8.65 9.67 -10.3 9.34 -12 9 C-11.52 2.64 -11.52 2.64 -9.375 0 C-5.88418213 -1.46981805 -3.60851044 -0.98413921 0 0 Z " fill="#223463" transform="translate(337,370)"/>
<path d="M0 0 C0.33 0.99 0.66 1.98 1 3 C1.66 3 2.32 3 3 3 C3 2.01 3 1.02 3 0 C3.99 0 4.98 0 6 0 C6.67354499 1.43429001 7.33859701 2.87257057 8 4.3125 C8.556875 5.51326172 8.556875 5.51326172 9.125 6.73828125 C10 9 10 9 10 12 C9.0206121 13.02019573 8.02104551 14.02149805 7 15 C7 15.66 7 16.32 7 17 C6.01 17 5.02 17 4 17 C4 15.68 4 14.36 4 13 C2.68 13 1.36 13 0 13 C0.33 15.31 0.66 17.62 1 20 C0.34 20 -0.32 20 -1 20 C-1 20.66 -1 21.32 -1 22 C-0.34 22.33 0.32 22.66 1 23 C1 23.66 1 24.32 1 25 C0.01 24.67 -0.98 24.34 -2 24 C-2 22.35 -2 20.7 -2 19 C-2.99 19 -3.98 19 -5 19 C-5.33 18.01 -5.66 17.02 -6 16 C-5.34 16 -4.68 16 -4 16 C-4.33 15.01 -4.66 14.02 -5 13 C-5.99 13.33 -6.98 13.66 -8 14 C-7.67 12.68 -7.34 11.36 -7 10 C-7.99 10.495 -7.99 10.495 -9 11 C-9 12.65 -9 14.3 -9 16 C-11.34058637 13.87219421 -12.70700306 11.88437779 -14 9 C-14.66 9 -15.32 9 -16 9 C-16.33 9.66 -16.66 10.32 -17 11 C-17.07427838 7.65747276 -17.06546953 5.1964086 -16 2 C-15.01 2.33 -14.02 2.66 -13 3 C-12.3125 5.0625 -12.3125 5.0625 -12 7 C-11.67 5.35 -11.34 3.7 -11 2 C-9.02 2 -7.04 2 -5 2 C-5.33 2.99 -5.66 3.98 -6 5 C-5.34 5 -4.68 5 -4 5 C-4 4.01 -4 3.02 -4 2 C-2.68 1.34 -1.36 0.68 0 0 Z " fill="#BBC1CF" transform="translate(123,294)"/>
<path d="M0 0 C9.24 0 18.48 0 28 0 C28 3.3 28 6.6 28 10 C18.76 10 9.52 10 0 10 C0 6.7 0 3.4 0 0 Z " fill="#F4FAFE" transform="translate(236,254)"/>
<path d="M0 0 C0.33 0.66 0.66 1.32 1 2 C1.66 2.33 2.32 2.66 3 3 C3.625 5.0625 3.625 5.0625 4 7 C4 5.02 4 3.04 4 1 C5.32 1.33 6.64 1.66 8 2 C7.34 3.32 6.68 4.64 6 6 C6.66 6 7.32 6 8 6 C8.33 5.34 8.66 4.68 9 4 C9.5534764 6.07553648 10 7.84365964 10 10 C10.99 10.33 11.98 10.66 13 11 C13 12.65 13 14.3 13 16 C13 13.3534665 13.98139634 11.4191837 15 9 C17 9.66666667 19 10.33333333 21 11 C21 12.65 21 14.3 21 16 C20.67 15.34 20.34 14.68 20 14 C19.34 14.66 18.68 15.32 18 16 C18.32041397 18.60280568 18.32041397 18.60280568 19 21 C19.33 20.34 19.66 19.68 20 19 C20 20.32 20 21.64 20 23 C19.01 23 18.02 23 17 23 C17 23.66 17 24.32 17 25 C16.34 25 15.68 25 15 25 C15 24.34 15 23.68 15 23 C13.68 22.67 12.36 22.34 11 22 C11 21.34 11 20.68 11 20 C9.02 20 7.04 20 5 20 C4.67 17.36 4.34 14.72 4 12 C3.67 12.33 3.34 12.66 3 13 C3 13.99 3 14.98 3 16 C0.61435923 15.42415568 -1.66682784 14.77772405 -4 14 C-4.125 11.125 -4.125 11.125 -4 8 C-3.34 7.34 -2.68 6.68 -2 6 C-2.66 5.34 -3.32 4.68 -4 4 C-3.67 3.01 -3.34 2.02 -3 1 C-2.01 0.67 -1.02 0.34 0 0 Z " fill="#A6AEC1" transform="translate(109,302)"/>
<path d="M0 0 C3.5722026 0.33229792 5.52458099 0.57740532 8.25 3 C12.2351908 5.89832058 16.17920532 5.81278467 21 6 C21.02686553 7.97909398 21.04633375 9.95828971 21.0625 11.9375 C21.07410156 13.03964844 21.08570313 14.14179688 21.09765625 15.27734375 C21 18 21 18 20 19 C12.39434367 19.96799262 8.20125065 17.16106224 2 13 C1.34 12.67 0.68 12.34 0 12 C0 8.04 0 4.08 0 0 Z " fill="#F9FCFE" transform="translate(251,167)"/>
<path d="M0 0 C4.29 0 8.58 0 13 0 C13.02683987 2.97922593 13.04676037 5.95821295 13.0625 8.9375 C13.07087891 9.78763672 13.07925781 10.63777344 13.08789062 11.51367188 C13.09111328 12.32255859 13.09433594 13.13144531 13.09765625 13.96484375 C13.10289307 14.7137085 13.10812988 15.46257324 13.11352539 16.23413086 C13 18 13 18 12 19 C10.16884117 19.09851171 8.33380067 19.12972629 6.5 19.125 C5.4996875 19.12757813 4.499375 19.13015625 3.46875 19.1328125 C1 19 1 19 0 18 C-0.08631874 16.65732587 -0.10706473 15.31025678 -0.09765625 13.96484375 C-0.09443359 13.15595703 -0.09121094 12.34707031 -0.08789062 11.51367188 C-0.07951172 10.66353516 -0.07113281 9.81339844 -0.0625 8.9375 C-0.05798828 8.08349609 -0.05347656 7.22949219 -0.04882812 6.34960938 C-0.03700373 4.23304337 -0.01906769 2.11651315 0 0 Z " fill="#6ABBFE" transform="translate(199,232)"/>
<path d="M0 0 C4.29 0 8.58 0 13 0 C13 5.94 13 11.88 13 18 C8.71 18 4.42 18 0 18 C0 12.06 0 6.12 0 0 Z " fill="#5CB5FE" transform="translate(298,275)"/>
<path d="M0 0 C4.29 0 8.58 0 13 0 C13 5.94 13 11.88 13 18 C8.71 18 4.42 18 0 18 C0 12.06 0 6.12 0 0 Z " fill="#61B8FE" transform="translate(283,275)"/>
<path d="M0 0 C4.29 0 8.58 0 13 0 C13 5.94 13 11.88 13 18 C8.71 18 4.42 18 0 18 C0 12.06 0 6.12 0 0 Z " fill="#5CB5FE" transform="translate(189,275)"/>
<path d="M0 0 C0.88307537 1.76615075 1.7638154 3.53348725 2.63671875 5.3046875 C3.6908516 7.38878969 4.78466724 9.45284781 5.89453125 11.5078125 C6.55475455 12.75517285 7.21491049 14.00256885 7.875 15.25 C8.20959229 15.85215332 8.54418457 16.45430664 8.88891602 17.07470703 C11.14318947 21.39094056 11.14318947 21.39094056 10.4453125 24.359375 C8.71129143 26.32772324 7.56454873 26.65806017 5 27 C4.20576139 25.43880578 3.41472877 23.87598036 2.625 22.3125 C2.18414062 21.44238281 1.74328125 20.57226562 1.2890625 19.67578125 C-2 12.84848485 -2 12.84848485 -2 9 C-3.423125 9.99 -3.423125 9.99 -4.875 11 C-8 13 -8 13 -10 13 C-10.66 11.35 -11.32 9.7 -12 8 C-10.37982158 6.66081194 -8.75370657 5.3288031 -7.125 4 C-6.22007812 3.2575 -5.31515625 2.515 -4.3828125 1.75 C-2 0 -2 0 0 0 Z " fill="#203362" transform="translate(360,350)"/>
<path d="M0 0 C3.96 0 7.92 0 12 0 C12 5.94 12 11.88 12 18 C8.04 18 4.08 18 0 18 C0 12.06 0 6.12 0 0 Z " fill="#57B3FE" transform="translate(204,275)"/>
<path d="M0 0 C3.96 0 7.92 0 12 0 C12 5.94 12 11.88 12 18 C8.04 18 4.08 18 0 18 C0 12.06 0 6.12 0 0 Z " fill="#59B4FE" transform="translate(288,232)"/>
<path d="M0 0 C0.33 0 0.66 0 1 0 C1 5.94 1 11.88 1 18 C5.29 18 9.58 18 14 18 C14 12.06 14 6.12 14 0 C14.33 0 14.66 0 15 0 C15.33 5.61 15.66 11.22 16 17 C20.29 17.33 24.58 17.66 29 18 C29 12.39 29 6.78 29 1 C29.33 1 29.66 1 30 1 C30 8.26 30 15.52 30 23 C20.1 23 10.2 23 0 23 C0 15.41 0 7.82 0 0 Z " fill="#FAFCFF" transform="translate(188,275)"/>
<path d="M0 0 C0.33 0 0.66 0 1 0 C1 5.94 1 11.88 1 18 C7.435 17.505 7.435 17.505 14 17 C14.33 12.05 14.66 7.1 15 2 C15.33 2 15.66 2 16 2 C16 7.28 16 12.56 16 18 C20.29 18 24.58 18 29 18 C29 12.06 29 6.12 29 0 C29.33 0 29.66 0 30 0 C30 7.59 30 15.18 30 23 C20.1 23 10.2 23 0 23 C0 15.41 0 7.82 0 0 Z " fill="#FAFCFF" transform="translate(282,275)"/>
<path d="M0 0 C3.2157484 1.36409048 4.71455248 2.7235202 6.69384766 5.56860352 C9.04235609 8.40232464 10.48672223 9.49719073 14.16943359 9.88647461 C15.74525937 9.92687264 17.32234404 9.93041992 18.8984375 9.90234375 C20.15087753 9.92078087 20.15087753 9.92078087 21.42861938 9.93959045 C24.07831754 9.97121832 26.72521724 9.95507534 29.375 9.9375 C31.17841117 9.95061513 32.98180249 9.96685806 34.78515625 9.98632812 C39.19069807 10.02709385 43.59436065 10.02504285 48 10 C48 10.33 48 10.66 48 11 C41.565 11.495 41.565 11.495 35 12 C35 12.33 35 12.66 35 13 C27.08 13 19.16 13 11 13 C11 22.24 11 31.48 11 41 C10.67 41 10.34 41 10 41 C9.67 56.18 9.34 71.36 9 87 C8.67 87 8.34 87 8 87 C8.0030162 86.06785172 8.00603241 85.13570343 8.00914001 84.17530823 C8.03308127 75.36287052 8.0200893 66.55114594 7.97153378 57.738801 C7.94774487 53.2088555 7.93667824 48.67964357 7.95532227 44.1496582 C7.97285853 39.77252373 7.95614523 35.39670283 7.91632271 31.01972771 C7.90707461 29.35532835 7.90988001 27.69081421 7.92530632 26.02646065 C8.03950126 13.71863523 8.03950126 13.71863523 1.49952698 3.5486908 C0 2 0 2 0 0 Z " fill="#87C9FE" transform="translate(271,214)"/>
<path d="M0 0 C0.66 0 1.32 0 2 0 C1.62675191 3.23481682 0.79174669 4.22155254 -1.50956726 6.66983032 C-4.41916234 10.10151458 -4.71440456 13.26541896 -4.65942383 17.65771484 C-4.66990753 18.39986237 -4.68039124 19.14200989 -4.69119263 19.90664673 C-4.71982624 22.34184175 -4.7136655 24.7756051 -4.70703125 27.2109375 C-4.72015349 28.90631888 -4.73545934 30.60168465 -4.75285339 32.29702759 C-4.79265517 36.74566925 -4.80289069 41.19390149 -4.80688477 45.6427002 C-4.81622535 50.18770733 -4.85364466 54.73247483 -4.88867188 59.27734375 C-4.95319849 68.18488468 -4.98647893 77.09224579 -5 86 C-5.33 86 -5.66 86 -6 86 C-6.33 70.82 -6.66 55.64 -7 40 C-7.33 40 -7.66 40 -8 40 C-8 30.76 -8 21.52 -8 12 C-15.92 12 -23.84 12 -32 12 C-32 11.67 -32 11.34 -32 11 C-36.29 10.67 -40.58 10.34 -45 10 C-45 9.67 -45 9.34 -45 9 C-43.8855249 9.01160156 -42.7710498 9.02320313 -41.62280273 9.03515625 C-37.46436857 9.06783349 -33.3075343 9.04775184 -29.14916992 9.01220703 C-27.35393006 9.00412546 -25.55856701 9.01011098 -23.76342773 9.03076172 C-13.54612547 9.54068085 -13.54612547 9.54068085 -4.29345703 6.15234375 C-2.61380629 4.17700132 -1.34182958 2.20571284 0 0 Z " fill="#8ACAFE" transform="translate(226,215)"/>
<path d="M0 0 C4.30742759 2.23654894 7.64038378 4.73453991 10 9 C10.79562414 14.30957333 10.64704364 18.60636754 8.375 23.5 C4.51073716 27.5676451 1.05798327 29.1479244 -4.5 29.4375 C-8.98528507 29.27137833 -11.58695604 28.0067292 -15 25 C-18.63107675 21.00581558 -18.4504175 16.74744152 -18.27734375 11.58984375 C-17.91792203 8.2335536 -17.326207 6.47628487 -15 4 C-9.80200607 0.22890637 -6.39103136 -0.81155954 0 0 Z M-14 7 C-16.69932537 11.04898806 -16.53528771 14.24932159 -16 19 C-14.27158115 23.18459301 -12.15177657 25.20718739 -8 27 C-2.81081509 27.5660929 0.66665607 26.95455268 5 24 C7.94899302 19.67481024 8.6475474 16.18037921 8 11 C5.97333762 7.29609979 4.51955484 5.34636989 1 3 C-5.06724454 2.11562198 -9.67607765 2.27070993 -14 7 Z " fill="#64B9FE" transform="translate(254,212)"/>
<path d="M0 0 C2.475 0.99 2.475 0.99 5 2 C4.67 3.32 4.34 4.64 4 6 C4.99 6 5.98 6 7 6 C7.33 5.34 7.66 4.68 8 4 C8.66 4.66 9.32 5.32 10 6 C9.67 6.66 9.34 7.32 9 8 C10.98 7.67 12.96 7.34 15 7 C14.67 5.35 14.34 3.7 14 2 C14.99 2.66 15.98 3.32 17 4 C18.65549531 4.38499891 20.3222433 4.72793135 22 5 C22 6.98 22 8.96 22 11 C19.35261084 12.4606285 18.10551666 13 15 13 C15.33 12.01 15.66 11.02 16 10 C15.34 9.67 14.68 9.34 14 9 C14.020625 9.94875 14.04125 10.8975 14.0625 11.875 C14 15 14 15 13 17 C9.66666667 17 6.33333333 17 3 17 C3 15.02 3 13.04 3 11 C3.99 11 4.98 11 6 11 C6 10.34 6 9.68 6 9 C5.01 8.67 4.02 8.34 3 8 C0 6 0 6 -0.75 4 C-1 2 -1 2 0 0 Z " fill="#C5CBD6" transform="translate(123,305)"/>
<path d="M0 0 C3.63 0 7.26 0 11 0 C11.08097324 2.27024968 11.13917704 4.54132075 11.1875 6.8125 C11.22230469 8.07707031 11.25710938 9.34164062 11.29296875 10.64453125 C11 14 11 14 9.64453125 15.92578125 C7.28408702 17.46763912 5.7592847 17.4138927 3 17 C1.35546875 15.92578125 1.35546875 15.92578125 0 14 C-0.29296875 10.64453125 -0.29296875 10.64453125 -0.1875 6.8125 C-0.16042969 5.54019531 -0.13335937 4.26789063 -0.10546875 2.95703125 C-0.07066406 1.98121094 -0.03585937 1.00539062 0 0 Z " fill="#F3F4F7" transform="translate(365,225)"/>
<path d="M0 0 C2 3 2 3 2.625 5.875 C2 9 2 9 0.31640625 10.5 C-5.10262784 14 -5.10262784 14 -9 14 C-9.69965443 12.73581754 -10.38434763 11.46334598 -11.0625 10.1875 C-11.44535156 9.47980469 -11.82820312 8.77210937 -12.22265625 8.04296875 C-13 6 -13 6 -12 3 C-7.94785864 0.45563217 -4.78487935 -0.65248355 0 0 Z " fill="#FBFBFC" transform="translate(196,110)"/>
<path d="M0 0 C0.99 0.33 1.98 0.66 3 1 C3.22331199 2.58129029 3.42804644 4.16521089 3.625 5.75 C3.74101562 6.63171875 3.85703125 7.5134375 3.9765625 8.421875 C4.00207817 11.22859878 3.44843844 12.63384866 2 15 C2.33 15.33 2.66 15.66 3 16 C3 16.33 3 16.66 3 17 C0.625 17.1875 0.625 17.1875 -2 17 C-2.66 16.01 -3.32 15.02 -4 14 C-6.05925139 13.27617533 -6.05925139 13.27617533 -8 13 C-8 12.34 -8 11.68 -8 11 C-8.99 11 -9.98 11 -11 11 C-11 9.02 -11 7.04 -11 5 C-10.01 5.33 -9.02 5.66 -8 6 C-8.33 6.66 -8.66 7.32 -9 8 C-8.34 8 -7.68 8 -7 8 C-6.67 6.68 -6.34 5.36 -6 4 C-6.66 3.67 -7.32 3.34 -8 3 C-6.68 3.33 -5.36 3.66 -4 4 C-3.67 3.34 -3.34 2.68 -3 2 C-2.34 2 -1.68 2 -1 2 C-0.67 1.34 -0.34 0.68 0 0 Z " fill="#B5BCCB" transform="translate(366,310)"/>
<path d="M0 0 C2.97 0 5.94 0 9 0 C9 4.95 9 9.9 9 15 C7.02 15.33 5.04 15.66 3 16 C-0.13107836 12.61416198 -0.33550778 10.28890538 -0.1875 5.75 C-0.14689453 4.13351563 -0.14689453 4.13351563 -0.10546875 2.484375 C-0.07066406 1.66453125 -0.03585937 0.8446875 0 0 Z " fill="#F0F1F4" transform="translate(382,224)"/>
<path d="M0 0 C2.25 -0.375 2.25 -0.375 5 0 C5.639375 0.99 6.27875 1.98 6.9375 3 C7.9584375 4.485 7.9584375 4.485 9 6 C12.20936254 6.47799016 14.58997162 6.08386944 17.75 5.4375 C20 5 20 5 22 6 C21.6875 7.875 21.6875 7.875 21 10 C16.74347138 12.83768574 12.99717834 12.63727624 8 12 C4.66847171 10.33423586 2.7265891 9.05685687 0.625 6 C0 4 0 4 0 0 Z " fill="#273866" transform="translate(286,82)"/>
<path d="M0 0 C4.75 0.75 4.75 0.75 7 3 C6.875 5 6.875 5 6 7 C3.9375 8.25 3.9375 8.25 2 9 C2.33 9.33 2.66 9.66 3 10 C3.99 10 4.98 10 6 10 C6.1875 12.875 6.1875 12.875 6 16 C3 18 3 18 0 18 C0 17.34 0 16.68 0 16 C0.66 16 1.32 16 2 16 C2 15.34 2 14.68 2 14 C1.34 13.67 0.68 13.34 0 13 C0 12.67 0 12.34 0 12 C-1.98 12.33 -3.96 12.66 -6 13 C-6 12.34 -6 11.68 -6 11 C-6.66 10.34 -7.32 9.68 -8 9 C-7.34 8.34 -6.68 7.68 -6 7 C-4.68 7 -3.36 7 -2 7 C-2 7.66 -2 8.32 -2 9 C-1.34 9 -0.68 9 0 9 C0.33 7.68 0.66 6.36 1 5 C-0.32 5.33 -1.64 5.66 -3 6 C-3 5.01 -3 4.02 -3 3 C-2.34 3 -1.68 3 -1 3 C-0.67 2.01 -0.34 1.02 0 0 Z " fill="#A0A9BC" transform="translate(388,305)"/>
<path d="M0 0 C2.1519437 3.22791555 2.20086443 4.28400809 2 8 C0 8 -2 8 -4 8 C-3.67 8.99 -3.34 9.98 -3 11 C-3 10.34 -3 9.68 -3 9 C-0.03 9.495 -0.03 9.495 3 10 C2.34 11.65 1.68 13.3 1 15 C-0.65 15 -2.3 15 -4 15 C-4.66 13.35 -5.32 11.7 -6 10 C-6.61875 10.20625 -7.2375 10.4125 -7.875 10.625 C-8.57625 10.74875 -9.2775 10.8725 -10 11 C-10.66 10.34 -11.32 9.68 -12 9 C-11.67 8.34 -11.34 7.68 -11 7 C-11.99 7.33 -12.98 7.66 -14 8 C-13.34 6.35 -12.68 4.7 -12 3 C-11.01 3 -10.02 3 -9 3 C-9 3.99 -9 4.98 -9 6 C-8.34 6 -7.68 6 -7 6 C-8 8 -8 8 -9 9 C-8.01 9 -7.02 9 -6 9 C-6.66 6.69 -7.32 4.38 -8 2 C-4.79191085 -0.1387261 -3.72301503 -0.47730962 0 0 Z " fill="#8793AB" transform="translate(385,292)"/>
<path d="M0 0 C0.99 0.103125 1.98 0.20625 3 0.3125 C5.69461986 4.35442978 5.23200889 6.5176496 5 11.3125 C4 12.3125 4 12.3125 0.5625 12.5625 C-0.613125 12.48 -1.78875 12.3975 -3 12.3125 C-5.44897847 8.63903229 -5.31537716 6.64893601 -5 2.3125 C-3 0.3125 -3 0.3125 0 0 Z " fill="#364671" transform="translate(308,380.6875)"/>
<path d="M0 0 C0.33 0.66 0.66 1.32 1 2 C3.32156597 2.40729228 5.6568787 2.74438677 8 3 C8.20086443 6.71599191 8.1519437 7.77208445 6 11 C3.5625 11.375 3.5625 11.375 1 11 C-0.8125 9.5 -0.8125 9.5 -2 8 C-1.34 6.02 -0.68 4.04 0 2 C-0.99 2 -1.98 2 -3 2 C-2.34 2.33 -1.68 2.66 -1 3 C-1 3.66 -1 4.32 -1 5 C-1.99 5.495 -1.99 5.495 -3 6 C-3.33 6.99 -3.66 7.98 -4 9 C-5.37562854 7.71034824 -6.70766393 6.37310707 -8 5 C-8 3 -8 3 -6 1 C-4.01178687 0.60235737 -2.01055661 0.26224651 0 0 Z " fill="#8490A9" transform="translate(379,316)"/>
<path d="M0 0 C0.33 0.66 0.66 1.32 1 2 C3.52733235 2.65555119 3.52733235 2.65555119 6 3 C6.33 2.01 6.66 1.02 7 0 C8.32 0 9.64 0 11 0 C11 0.66 11 1.32 11 2 C11.99 2 12.98 2 14 2 C14 4.31 14 6.62 14 9 C12.6078125 9.1546875 12.6078125 9.1546875 11.1875 9.3125 C7.96745642 10.0070192 6.97420135 10.47740939 5 13 C4.34 12.67 3.68 12.34 3 12 C3 11.34 3 10.68 3 10 C3.66 9.67 4.32 9.34 5 9 C5.66 8.34 6.32 7.68 7 7 C6.01 7 5.02 7 4 7 C4 6.34 4 5.68 4 5 C3.34 5 2.68 5 2 5 C2.33 5.99 2.66 6.98 3 8 C2.01 7.67 1.02 7.34 0 7 C0 4.69 0 2.38 0 0 Z " fill="#CACFDA" transform="translate(380,296)"/>
<path d="M0 0 C3 2 3 2 5 4 C5.66 3.34 6.32 2.68 7 2 C6.67 4.64 6.34 7.28 6 10 C5.34 10 4.68 10 4 10 C3.67 9.34 3.34 8.68 3 8 C0.97536745 7.34786708 0.97536745 7.34786708 -1 7 C-1 8.98 -1 10.96 -1 13 C-2.32 12.34 -3.64 11.68 -5 11 C-4.34 11 -3.68 11 -3 11 C-3.33 10.01 -3.66 9.02 -4 8 C-4.66 7.67 -5.32 7.34 -6 7 C-5.67 7.99 -5.34 8.98 -5 10 C-5.99 10 -6.98 10 -8 10 C-8 7.69 -8 5.38 -8 3 C-5.35261084 1.5393715 -4.10551666 1 -1 1 C-0.67 2.32 -0.34 3.64 0 5 C0 3.35 0 1.7 0 0 Z " fill="#B1B9C9" transform="translate(113,289)"/>
<path d="M0 0 C1.73546076 2.60319113 2.65175233 4.52267237 3.625 7.4375 C3.88539063 8.19933594 4.14578125 8.96117188 4.4140625 9.74609375 C5 12 5 12 5 16 C1.7 16 -1.6 16 -5 16 C-4.35828555 13.51969902 -3.71184679 11.04080278 -3.0625 8.5625 C-2.78889648 7.50192383 -2.78889648 7.50192383 -2.50976562 6.41992188 C-1.11328125 1.11328125 -1.11328125 1.11328125 0 0 Z " fill="#E9EBEF" transform="translate(247,99)"/>
<path d="M0 0 C3.52892447 1.41156979 6.54862203 2.77384533 9.8125 4.625 C10.99779297 5.29402344 10.99779297 5.29402344 12.20703125 5.9765625 C12.79871094 6.31429687 13.39039063 6.65203125 14 7 C12.34807388 11.20490286 10.98771331 11.80982935 7 15 C4.69 10.05 2.38 5.1 0 0 Z " fill="#F1F2F5" transform="translate(154,138)"/>
<path d="M0 0 C2.97 0 5.94 0 9 0 C9 2.97 9 5.94 9 9 C6.03 9 3.06 9 0 9 C0 6.03 0 3.06 0 0 Z " fill="#EDF7FF" transform="translate(300,282)"/>
<path d="M0 0 C2.97 0 5.94 0 9 0 C9 2.97 9 5.94 9 9 C6.03 9 3.06 9 0 9 C0 6.03 0 3.06 0 0 Z " fill="#EDF7FF" transform="translate(191,282)"/>
<path d="M0 0 C0.66 0 1.32 0 2 0 C2 0.66 2 1.32 2 2 C3.32 2 4.64 2 6 2 C5.835 2.763125 5.67 3.52625 5.5 4.3125 C4.90854604 7.03596236 4.90854604 7.03596236 5 10 C5 11.32 5 12.64 5 14 C4.01 14 3.02 14 2 14 C2.33 13.34 2.66 12.68 3 12 C2.67 11.67 2.34 11.34 2 11 C1.34 10.01 0.68 9.02 0 8 C-1.32 9.65 -2.64 11.3 -4 13 C-4.33 11.02 -4.66 9.04 -5 7 C-4.34 7.66 -3.68 8.32 -3 9 C-3.33 6.69 -3.66 4.38 -4 2 C-2.68 2 -1.36 2 0 2 C0 1.34 0 0.68 0 0 Z " fill="#C8CDD9" transform="translate(374,287)"/>
<path d="M0 0 C-0.33 2.64 -0.66 5.28 -1 8 C-4 9 -4 9 -6.69921875 7.78515625 C-7.68535156 7.21667969 -8.67148438 6.64820313 -9.6875 6.0625 C-10.68136719 5.49660156 -11.67523438 4.93070313 -12.69921875 4.34765625 C-13.45847656 3.90292969 -14.21773438 3.45820313 -15 3 C-10.12206417 -0.25195722 -5.77608621 -0.11325659 0 0 Z " fill="#F3F4F6" transform="translate(130,212)"/>
<path d="M0 0 C-0.33 2.97 -0.66 5.94 -1 9 C-1.99 9 -2.98 9 -4 9 C-4 8.01 -4 7.02 -4 6 C-4.66 6 -5.32 6 -6 6 C-6 6.99 -6 7.98 -6 9 C-6.99 9 -7.98 9 -9 9 C-9 7.68 -9 6.36 -9 5 C-9.30404678 3.32774271 -9.63128912 1.65919896 -10 0 C-6.22996568 -2.61002376 -4.07631429 -1.66758312 0 0 Z " fill="#BDC3D1" transform="translate(130,284)"/>
<path d="M0 0 C1.32 0.33 2.64 0.66 4 1 C3.01 1.33 2.02 1.66 1 2 C1 2.66 1 3.32 1 4 C1.66 4.33 2.32 4.66 3 5 C2.67 7.64 2.34 10.28 2 13 C2.66 13.33 3.32 13.66 4 14 C3.34 14 2.68 14 2 14 C2 14.66 2 15.32 2 16 C0.35 16 -1.3 16 -3 16 C-3.33 15.01 -3.66 14.02 -4 13 C-3.67 12.38125 -3.34 11.7625 -3 11.125 C-1.70019392 8.36291208 -2.23837745 6.8941657 -3 4 C-3 3.34 -3 2.68 -3 2 C-2.01 2 -1.02 2 0 2 C0 1.34 0 0.68 0 0 Z " fill="#8E99B0" transform="translate(358,296)"/>
<path d="M0 0 C2.64 0 5.28 0 8 0 C8 2.97 8 5.94 8 9 C5.36 9 2.72 9 0 9 C0 6.03 0 3.06 0 0 Z " fill="#FAFDFF" transform="translate(286,282)"/>
<path d="M0 0 C2.64 0 5.28 0 8 0 C8 2.97 8 5.94 8 9 C5.36 9 2.72 9 0 9 C0 6.03 0 3.06 0 0 Z " fill="#FCFDFF" transform="translate(206,282)"/>
<path d="M0 0 C2.64 0 5.28 0 8 0 C8 2.97 8 5.94 8 9 C5.36 9 2.72 9 0 9 C0 6.03 0 3.06 0 0 Z " fill="#F8FCFE" transform="translate(290,239)"/>
<path d="M0 0 C2.64 0 5.28 0 8 0 C8 2.97 8 5.94 8 9 C5.36 9 2.72 9 0 9 C0 6.03 0 3.06 0 0 Z " fill="#F7FBFE" transform="translate(202,239)"/>
<path d="M0 0 C0.99 0.33 1.98 0.66 3 1 C3 2.32 3 3.64 3 5 C2.34 5 1.68 5 1 5 C1.33 5.99 1.66 6.98 2 8 C0.68 8 -0.64 8 -2 8 C-3.67225729 8.30404678 -5.34080104 8.63128912 -7 9 C-7 9.66 -7 10.32 -7 11 C-6.01 11.33 -5.02 11.66 -4 12 C-5.32 12.33 -6.64 12.66 -8 13 C-8 12.34 -8 11.68 -8 11 C-8.99 11 -9.98 11 -11 11 C-11 9.02 -11 7.04 -11 5 C-10.01 5.33 -9.02 5.66 -8 6 C-8.33 6.66 -8.66 7.32 -9 8 C-8.34 8 -7.68 8 -7 8 C-6.67 6.68 -6.34 5.36 -6 4 C-6.66 3.67 -7.32 3.34 -8 3 C-6.68 3.33 -5.36 3.66 -4 4 C-3.67 3.34 -3.34 2.68 -3 2 C-2.34 2 -1.68 2 -1 2 C-0.67 1.34 -0.34 0.68 0 0 Z " fill="#6A7897" transform="translate(366,310)"/>
<path d="M0 0 C1.32 0 2.64 0 4 0 C4.125 5.75 4.125 5.75 3 8 C-0.33333333 8 -3.66666667 8 -7 8 C-7 6.02 -7 4.04 -7 2 C-6.01 2 -5.02 2 -4 2 C-4 2.66 -4 3.32 -4 4 C-3.34 4 -2.68 4 -2 4 C-1.67 3.01 -1.34 2.02 -1 1 C-0.67 0.67 -0.34 0.34 0 0 Z " fill="#B3BBCA" transform="translate(133,314)"/>
<path d="M0 0 C2.97 0 5.94 0 9 0 C9.33 0.99 9.66 1.98 10 3 C7.50935112 3.68707555 5.62113708 4 3 4 C0.79857668 6.4390706 0.79857668 6.4390706 -1 9 C-2.65 8.67 -4.3 8.34 -6 8 C-5.67 6.35 -5.34 4.7 -5 3 C-4.360625 2.87625 -3.72125 2.7525 -3.0625 2.625 C-2.0415625 2.315625 -2.0415625 2.315625 -1 2 C-0.67 1.34 -0.34 0.68 0 0 Z " fill="#C3C9D5" transform="translate(370,302)"/>
<path d="M0 0 C2.66053211 0 4.49940039 0.19335496 7 1 C7.66 1.66 8.32 2.32 9 3 C8.01 4.485 8.01 4.485 7 6 C7.99 6 8.98 6 10 6 C10 5.01 10 4.02 10 3 C10.66 3 11.32 3 12 3 C12 3.99 12 4.98 12 6 C12.66 6.33 13.32 6.66 14 7 C13.34 7 12.68 7 12 7 C12 7.99 12 8.98 12 10 C11.34 10 10.68 10 10 10 C9.67 9.34 9.34 8.68 9 8 C7.68 8.33 6.36 8.66 5 9 C4.67 8.34 4.34 7.68 4 7 C3.319375 6.360625 2.63875 5.72125 1.9375 5.0625 C0 3 0 3 0 0 Z " fill="#6B7998" transform="translate(114,287)"/>
<path d="M0 0 C0.99 0.33 1.98 0.66 3 1 C2.39254603 5.85963179 0.27241033 9.7405518 -2 14 C-2.99 13.67 -3.98 13.34 -5 13 C-4.54803755 11.39402675 -4.08817673 9.79027492 -3.625 8.1875 C-3.36976563 7.29417969 -3.11453125 6.40085937 -2.8515625 5.48046875 C-2 3 -2 3 0 0 Z " fill="#E3E5EB" transform="translate(200,384)"/>
<path d="M0 0 C0.33 0.66 0.66 1.32 1 2 C4.02934491 2.65772428 4.02934491 2.65772428 7 3 C7 3.99 7 4.98 7 6 C5.02 6.33 3.04 6.66 1 7 C1 8.32 1 9.64 1 11 C1.66 11.33 2.32 11.66 3 12 C2.01 12 1.02 12 0 12 C-0.103125 11.21625 -0.20625 10.4325 -0.3125 9.625 C-0.77595022 6.66954819 -0.77595022 6.66954819 -4 5 C-4 4.34 -4 3.68 -4 3 C-3.01 3 -2.02 3 -1 3 C-0.67 2.01 -0.34 1.02 0 0 Z " fill="#949EB4" transform="translate(373,305)"/>
<path d="M0 0 C-0.99 1.175625 -0.99 1.175625 -2 2.375 C-4.20201441 4.71512812 -4.20201441 4.71512812 -4 7 C-4.99 7 -5.98 7 -7 7 C-7 5.68 -7 4.36 -7 3 C-8.32 2.34 -9.64 1.68 -11 1 C-11 0.34 -11 -0.32 -11 -1 C-3.57142857 -2.42857143 -3.57142857 -2.42857143 0 0 Z " fill="#CFD3DD" transform="translate(134,304)"/>
<path d="M0 0 C0 0.99 0 1.98 0 3 C-0.66 3 -1.32 3 -2 3 C-1.34 5.97 -0.68 8.94 0 12 C-1.32 11.34 -2.64 10.68 -4 10 C-3.34 10 -2.68 10 -2 10 C-2.33 9.01 -2.66 8.02 -3 7 C-3.66 6.67 -4.32 6.34 -5 6 C-4.67 6.99 -4.34 7.98 -4 9 C-4.99 9 -5.98 9 -7 9 C-7 6.69 -7 4.38 -7 2 C-4.35261084 0.5393715 -3.10551666 0 0 0 Z " fill="#727F9C" transform="translate(112,290)"/>
<path d="M0 0 C0.99 0.33 1.98 0.66 3 1 C-0.96 5.62 -4.92 10.24 -9 15 C-9.66 14.34 -10.32 13.68 -11 13 C-7.37 8.71 -3.74 4.42 0 0 Z " fill="#64B9FE" transform="translate(238,201)"/>
<path d="M0 0 C0.66 0 1.32 0 2 0 C2.33 2.97 2.66 5.94 3 9 C2.34 9 1.68 9 1 9 C1 9.66 1 10.32 1 11 C1.66 11.33 2.32 11.66 3 12 C3 12.66 3 13.32 3 14 C2.01 13.67 1.02 13.34 0 13 C0 11.35 0 9.7 0 8 C-0.99 8 -1.98 8 -3 8 C-3.33 7.01 -3.66 6.02 -4 5 C-3.34 5 -2.68 5 -2 5 C-1.7834375 4.0409375 -1.7834375 4.0409375 -1.5625 3.0625 C-1 1 -1 1 0 0 Z " fill="#D1D5DE" transform="translate(121,305)"/>
<path d="M0 0 C0.33 1.32 0.66 2.64 1 4 C-2.78187881 5.83691257 -4.94568308 6.15837626 -9 5 C-9 4.01 -9 3.02 -9 2 C-3.375 0 -3.375 0 0 0 Z " fill="#394973" transform="translate(315,394)"/>
<path d="M0 0 C0.350625 0.45375 0.70125 0.9075 1.0625 1.375 C3.77096206 3.64661334 6.60795328 4.16798854 10 5 C6.25 7 6.25 7 4 7 C4.33 8.32 4.66 9.64 5 11 C4.01 11 3.02 11 2 11 C0.57741188 7.17679443 -0.24042276 4.08718695 0 0 Z " fill="#E8EAEF" transform="translate(302,389)"/>
<path d="M0 0 C0.66 0 1.32 0 2 0 C2.10841951 1.91541138 2.18578079 3.83259773 2.25 5.75 C2.29640625 6.81734375 2.3428125 7.8846875 2.390625 8.984375 C2 12 2 12 0.109375 14.390625 C-2 16 -2 16 -4 16 C-3.6875 14.0625 -3.6875 14.0625 -3 12 C-2.01 11.67 -1.02 11.34 0 11 C0 7.37 0 3.74 0 0 Z " fill="#65BAFE" transform="translate(249,216)"/>
<path d="M0 0 C1.98 0.495 1.98 0.495 4 1 C3.34 2.32 2.68 3.64 2 5 C2.66 5 3.32 5 4 5 C4.33 4.34 4.66 3.68 5 3 C5.93423645 6.01031744 6.04449911 6.86650268 5 10 C2.03 9.505 2.03 9.505 -1 9 C-0.67 6.03 -0.34 3.06 0 0 Z " fill="#617091" transform="translate(113,303)"/>
<path d="M0 0 C0.99 0 1.98 0 3 0 C3.33 1.98 3.66 3.96 4 6 C0.33694766 6.74926071 -2.42355152 7.2380014 -6 6 C-5.67 5.01 -5.34 4.02 -5 3 C-3.35 3 -1.7 3 0 3 C0 2.01 0 1.02 0 0 Z " fill="#D9DCE4" transform="translate(126,294)"/>
<path d="M0 0 C0.99 0.33 1.98 0.66 3 1 C3 2.98 3 4.96 3 7 C0.35261084 8.4606285 -0.89448334 9 -4 9 C-3.67 8.01 -3.34 7.02 -3 6 C-3.66 5.34 -4.32 4.68 -5 4 C-4.360625 3.71125 -3.72125 3.4225 -3.0625 3.125 C-0.84793921 2.17176549 -0.84793921 2.17176549 0 0 Z " fill="#5C6C8E" transform="translate(142,309)"/>
<path d="M0 0 C3 1.8125 3 1.8125 6 4 C6 4.99 6 5.98 6 7 C6.66 7 7.32 7 8 7 C8.33 6.34 8.66 5.68 9 5 C9 5.99 9 6.98 9 8 C8.01 8 7.02 8 6 8 C6 8.66 6 9.32 6 10 C5.34 10 4.68 10 4 10 C4 9.34 4 8.68 4 8 C2.68 8 1.36 8 0 8 C0 7.01 0 6.02 0 5 C0.99 5 1.98 5 3 5 C2.01 4.34 1.02 3.68 0 3 C0 2.01 0 1.02 0 0 Z " fill="#617091" transform="translate(370,322)"/>
<path d="M0 0 C2 0.66666667 4 1.33333333 6 2 C6 3.65 6 5.3 6 7 C5.67 6.34 5.34 5.68 5 5 C4.01 5.99 3.02 6.98 2 8 C1.01 7.67 0.02 7.34 -1 7 C-1.8125 5.125 -1.8125 5.125 -2 3 C-1.34 2.01 -0.68 1.02 0 0 Z " fill="#5C6C8D" transform="translate(124,311)"/>
<path d="M0 0 C0.99 0.33 1.98 0.66 3 1 C3 1.66 3 2.32 3 3 C4.32 3.66 5.64 4.32 7 5 C6.67 5.33 6.34 5.66 6 6 C6 6.99 6 7.98 6 9 C3.61435923 8.42415568 1.33317216 7.77772405 -1 7 C-1.04254356 5.00045254 -1.04080783 2.99958364 -1 1 C-0.67 0.67 -0.34 0.34 0 0 Z " fill="#647393" transform="translate(106,309)"/>
<path d="M0 0 C1.98 0.66 3.96 1.32 6 2 C6 4.31 6 6.62 6 9 C5.01 8.67 4.02 8.34 3 8 C3.33 7.34 3.66 6.68 4 6 C3.01 6.33 2.02 6.66 1 7 C1 6.01 1 5.02 1 4 C0.34 3.67 -0.32 3.34 -1 3 C-0.67 2.01 -0.34 1.02 0 0 Z " fill="#6A7897" transform="translate(139,290)"/>
<path d="M0 0 C2.9008605 0.35298081 3.89516676 0.88728296 5.921875 3.06640625 C6.52515625 3.89011719 7.1284375 4.71382812 7.75 5.5625 C8.36359375 6.38878906 8.9771875 7.21507812 9.609375 8.06640625 C10.06828125 8.70449219 10.5271875 9.34257812 11 10 C10.34 10.66 9.68 11.32 9 12 C7.49707257 10.18992669 5.99772829 8.37687764 4.5 6.5625 C3.6646875 5.55316406 2.829375 4.54382813 1.96875 3.50390625 C0 1 0 1 0 0 Z " fill="#65BAFE" transform="translate(261,203)"/>
<path d="M0 0 C0.99 0 1.98 0 3 0 C2.79375 0.94875 2.5875 1.8975 2.375 2.875 C2.25125 3.90625 2.1275 4.9375 2 6 C2.66 6.66 3.32 7.32 4 8 C3.625 10.125 3.625 10.125 3 12 C2.01 11.67 1.02 11.34 0 11 C0 10.01 0 9.02 0 8 C-0.66 7.67 -1.32 7.34 -2 7 C-1.67 5.68 -1.34 4.36 -1 3 C-0.01 3 0.98 3 2 3 C1.34 2.67 0.68 2.34 0 2 C0 1.34 0 0.68 0 0 Z " fill="#C8CDD8" transform="translate(376,318)"/>
<path d="M0 0 C1.875 0.1875 1.875 0.1875 4 1 C5.20462778 3.40925555 6 5.33190862 6 8 C4.35 8 2.7 8 1 8 C0.40267181 5.23735711 0 2.83967231 0 0 Z " fill="#6D7B99" transform="translate(363,319)"/>
<path d="M0 0 C1.32 0 2.64 0 4 0 C4.125 5.75 4.125 5.75 3 8 C1 7 1 7 -2 5 C-1.125 1.125 -1.125 1.125 0 0 Z " fill="#6C7A98" transform="translate(133,314)"/>
<path d="M0 0 C0.33 0.66 0.66 1.32 1 2 C1.66 2 2.32 2 3 2 C3.33 1.34 3.66 0.68 4 0 C6 3 6 3 6 6 C4.02 6.33 2.04 6.66 0 7 C-0.33 6.01 -0.66 5.02 -1 4 C-1.66 3.34 -2.32 2.68 -3 2 C-2.01 1.34 -1.02 0.68 0 0 Z " fill="#5B6B8D" transform="translate(132,306)"/>
<path d="M0 0 C0 0.99 0 1.98 0 3 C-0.66 3 -1.32 3 -2 3 C-2 2.34 -2 1.68 -2 1 C-2.66 1 -3.32 1 -4 1 C-4 1.99 -4 2.98 -4 4 C-4.66 4 -5.32 4 -6 4 C-6 3.01 -6 2.02 -6 1 C-6.66 1 -7.32 1 -8 1 C-8 1.66 -8 2.32 -8 3 C-8.66 3 -9.32 3 -10 3 C-9.6875 1.0625 -9.6875 1.0625 -9 -1 C-5.23375329 -2.25541557 -3.62811066 -1.37061958 0 0 Z " fill="#5C6C8D" transform="translate(130,284)"/>
<path d="M0 0 C0.66 0 1.32 0 2 0 C2 0.66 2 1.32 2 2 C2.66 2 3.32 2 4 2 C4.33 1.34 4.66 0.68 5 0 C5 1.32 5 2.64 5 4 C4.01 4 3.02 4 2 4 C2 4.66 2 5.32 2 6 C1.34 6 0.68 6 0 6 C0 5.34 0 4.68 0 4 C-1.32 3.67 -2.64 3.34 -4 3 C-4 2.34 -4 1.68 -4 1 C-2.68 1.33 -1.36 1.66 0 2 C0 1.34 0 0.68 0 0 Z " fill="#58688A" transform="translate(124,321)"/>
<path d="M0 0 C0.66 0.66 1.32 1.32 2 2 C1.67 2.66 1.34 3.32 1 4 C2.65 4.33 4.3 4.66 6 5 C6 5.33 6 5.66 6 6 C5.195625 6.12375 4.39125 6.2475 3.5625 6.375 C2.2940625 6.684375 2.2940625 6.684375 1 7 C0.67 7.66 0.34 8.32 0 9 C0.66 9.33 1.32 9.66 2 10 C1.34 10.66 0.68 11.32 0 12 C-0.99 9.03 -1.98 6.06 -3 3 C-2.01 2.01 -1.02 1.02 0 0 Z " fill="#C9CED9" transform="translate(362,295)"/>
<path d="M0 0 C0.99 0 1.98 0 3 0 C3.1875 2.875 3.1875 2.875 3 6 C0 8 0 8 -3 8 C-3 7.34 -3 6.68 -3 6 C-2.34 6 -1.68 6 -1 6 C-1 5.34 -1 4.68 -1 4 C-1.66 3.67 -2.32 3.34 -3 3 C-2 2 -1 1 0 0 Z " fill="#5E6D8E" transform="translate(391,315)"/>
<path d="M0 0 C1.32 0.33 2.64 0.66 4 1 C4 5 4 5 3 7 C2.34 7 1.68 7 1 7 C1 6.34 1 5.68 1 5 C-0.32 5.33 -1.64 5.66 -3 6 C-3 5.01 -3 4.02 -3 3 C-2.34 3 -1.68 3 -1 3 C-0.67 2.01 -0.34 1.02 0 0 Z " fill="#707E9B" transform="translate(388,305)"/>
<path d="M0 0 C1.65 0.33 3.3 0.66 5 1 C4.75 2.875 4.75 2.875 4 5 C2 6.125 2 6.125 0 7 C-0.33 7.66 -0.66 8.32 -1 9 C-1.33 7.68 -1.66 6.36 -2 5 C-1.34 5 -0.68 5 0 5 C0 4.34 0 3.68 0 3 C-0.66 2.67 -1.32 2.34 -2 2 C-1.34 2 -0.68 2 0 2 C0 1.34 0 0.68 0 0 Z " fill="#6C7A98" transform="translate(140,302)"/>
<path d="M0 0 C0 0.99 0 1.98 0 3 C-0.99 3 -1.98 3 -3 3 C-3.33 3.99 -3.66 4.98 -4 6 C-4.33 5.34 -4.66 4.68 -5 4 C-5.66 4 -6.32 4 -7 4 C-7 2.35 -7 0.7 -7 -1 C-3.51418144 -2.2020064 -3.32007656 -2.21338437 0 0 Z " fill="#9EA7BB" transform="translate(140,304)"/>
<path d="M0 0 C0.99 0 1.98 0 3 0 C3 0.66 3 1.32 3 2 C3.99 2 4.98 2 6 2 C6 3.98 6 5.96 6 8 C5.01 7.67 4.02 7.34 3 7 C2.34 7 1.68 7 1 7 C0.67 6.01 0.34 5.02 0 4 C0.66 4 1.32 4 2 4 C2 3.34 2 2.68 2 2 C1.34 2 0.68 2 0 2 C0 1.34 0 0.68 0 0 Z " fill="#5C6B8D" transform="translate(388,296)"/>
<path d="M0 0 C1.32 0.33 2.64 0.66 4 1 C3.01 1.33 2.02 1.66 1 2 C1 2.66 1 3.32 1 4 C1.66 4.33 2.32 4.66 3 5 C2.34 5.66 1.68 6.32 1 7 C1 6.34 1 5.68 1 5 C0.34 5 -0.32 5 -1 5 C-0.67 5.99 -0.34 6.98 0 8 C-0.99 8 -1.98 8 -3 8 C-3 6.02 -3 4.04 -3 2 C-2.01 2 -1.02 2 0 2 C0 1.34 0 0.68 0 0 Z " fill="#5C6B8D" transform="translate(358,296)"/>
<path d="M0 0 C0.99 0.33 1.98 0.66 3 1 C2.67 1.66 2.34 2.32 2 3 C2.99 2.67 3.98 2.34 5 2 C5.33 2.66 5.66 3.32 6 4 C5.34 4 4.68 4 4 4 C4 4.66 4 5.32 4 6 C4.99 6.33 5.98 6.66 7 7 C5.68 7.33 4.36 7.66 3 8 C3 7.34 3 6.68 3 6 C2.01 6 1.02 6 0 6 C0 4.02 0 2.04 0 0 Z " fill="#5A6A8C" transform="translate(355,315)"/>
<path d="M0 0 C0.66 0.33 1.32 0.66 2 1 C2 1.99 2 2.98 2 4 C2.66 4 3.32 4 4 4 C3.34 5.65 2.68 7.3 2 9 C1.01 8.34 0.02 7.68 -1 7 C-0.67 6.34 -0.34 5.68 0 5 C-0.99 5.33 -1.98 5.66 -3 6 C-1.125 1.125 -1.125 1.125 0 0 Z " fill="#5F6E8F" transform="translate(374,294)"/>
<path d="M0 0 C1.98 0 3.96 0 6 0 C5.67 0.99 5.34 1.98 5 3 C5.66 3 6.32 3 7 3 C6.67 4.32 6.34 5.64 6 7 C5.67 6.01 5.34 5.02 5 4 C4.34 4 3.68 4 3 4 C2.67 4.66 2.34 5.32 2 6 C1.34 5.34 0.68 4.68 0 4 C0 2.68 0 1.36 0 0 Z " fill="#5A6A8C" transform="translate(112,296)"/>
<path d="M0 0 C0.33 0.99 0.66 1.98 1 3 C1.66 3 2.32 3 3 3 C3.33 2.01 3.66 1.02 4 0 C4 0.66 4 1.32 4 2 C5.32 1.67 6.64 1.34 8 1 C7.67 2.32 7.34 3.64 7 5 C4.69 5 2.38 5 0 5 C-0.33 4.34 -0.66 3.68 -1 3 C-0.67 2.01 -0.34 1.02 0 0 Z " fill="#A0A9BD" transform="translate(123,298)"/>
<path d="M0 0 C2.97 0 5.94 0 9 0 C9 0.99 9 1.98 9 3 C6.03 3 3.06 3 0 3 C0 2.01 0 1.02 0 0 Z " fill="#E0F1FF" transform="translate(300,277)"/>
<path d="M0 0 C2.97 0 5.94 0 9 0 C9 0.99 9 1.98 9 3 C6.03 3 3.06 3 0 3 C0 2.01 0 1.02 0 0 Z " fill="#E0F1FF" transform="translate(191,277)"/>
<path d="M0 0 C0.99 0 1.98 0 3 0 C3.33 0.66 3.66 1.32 4 2 C4.66 1.34 5.32 0.68 6 0 C5.49396008 2.16874252 5.00016187 3.99967627 4 6 C2.35 6 0.7 6 -1 6 C-0.34 5.67 0.32 5.34 1 5 C0.34 4.67 -0.32 4.34 -1 4 C-0.67 2.68 -0.34 1.36 0 0 Z " fill="#667494" transform="translate(381,321)"/>
<path d="M0 0 C0.99 0 1.98 0 3 0 C3.66 1.32 4.32 2.64 5 4 C4.01 4.495 4.01 4.495 3 5 C2.67 5.99 2.34 6.98 2 8 C0.62437146 6.71034824 -0.70766393 5.37310707 -2 4 C-2 2 -2 2 0 0 Z " fill="#58688A" transform="translate(373,317)"/>
<path d="M0 0 C1.65 0 3.3 0 5 0 C5.33 1.65 5.66 3.3 6 5 C5.01 5.33 4.02 5.66 3 6 C2.67 5.01 2.34 4.02 2 3 C1.34 3.66 0.68 4.32 0 5 C0 3.35 0 1.7 0 0 Z " fill="#647393" transform="translate(113,314)"/>
<path d="M0 0 C2.97 0.495 2.97 0.495 6 1 C6 1.66 6 2.32 6 3 C5.34 3 4.68 3 4 3 C3.67 3.99 3.34 4.98 3 6 C2.34 5.67 1.68 5.34 1 5 C0.67 5.66 0.34 6.32 0 7 C-0.33 5.68 -0.66 4.36 -1 3 C-0.34 3 0.32 3 1 3 C0.67 2.01 0.34 1.02 0 0 Z " fill="#556689" transform="translate(132,296)"/>
<path d="M0 0 C0.66 0 1.32 0 2 0 C2 0.66 2 1.32 2 2 C2.99 2 3.98 2 5 2 C4.67 2.99 4.34 3.98 4 5 C4 4.34 4 3.68 4 3 C3.34 3 2.68 3 2 3 C1.67 3.99 1.34 4.98 1 6 C0.34 5.34 -0.32 4.68 -1 4 C-1.99 4.33 -2.98 4.66 -4 5 C-4 4.01 -4 3.02 -4 2 C-2.68 2 -1.36 2 0 2 C0 1.34 0 0.68 0 0 Z " fill="#566689" transform="translate(374,287)"/>
<path d="M0 0 C1.485 0.99 1.485 0.99 3 2 C4.9896995 2.39013716 6.99019869 2.73202649 9 3 C8.67 3.99 8.34 4.98 8 6 C5.36 5.34 2.72 4.68 0 4 C0 2.68 0 1.36 0 0 Z " fill="#DBDFE6" transform="translate(374,312)"/>
<path d="M0 0 C1.65 0 3.3 0 5 0 C5.66 1.65 6.32 3.3 7 5 C5.02 5.33 3.04 5.66 1 6 C1 5.34 1 4.68 1 4 C0.34 3.34 -0.32 2.68 -1 2 C-0.67 1.34 -0.34 0.68 0 0 Z " fill="#526386" transform="translate(381,312)"/>
<path d="M0 0 C2.97 0.495 2.97 0.495 6 1 C5.34 2.65 4.68 4.3 4 6 C2.35 6 0.7 6 -1 6 C-1.33 5.01 -1.66 4.02 -2 3 C-1.34 2.67 -0.68 2.34 0 2 C0 1.34 0 0.68 0 0 Z " fill="#526387" transform="translate(382,301)"/>
<path d="M0 0 C2.64 0 5.28 0 8 0 C8 0.99 8 1.98 8 3 C5.36 3 2.72 3 0 3 C0 2.01 0 1.02 0 0 Z " fill="#ECF6FE" transform="translate(286,277)"/>
<path d="M0 0 C2.64 0 5.28 0 8 0 C8 0.99 8 1.98 8 3 C5.36 3 2.72 3 0 3 C0 2.01 0 1.02 0 0 Z " fill="#EDF7FE" transform="translate(206,277)"/>
<path d="M0 0 C2.64 0 5.28 0 8 0 C8 0.99 8 1.98 8 3 C5.36 3 2.72 3 0 3 C0 2.01 0 1.02 0 0 Z " fill="#EFF8FE" transform="translate(290,234)"/>
<path d="M0 0 C2.64 0 5.28 0 8 0 C8 0.99 8 1.98 8 3 C5.36 3 2.72 3 0 3 C0 2.01 0 1.02 0 0 Z " fill="#EEF7FE" transform="translate(202,234)"/>
<path d="M0 0 C0.66 0 1.32 0 2 0 C2.33 1.98 2.66 3.96 3 6 C2.34 6 1.68 6 1 6 C0.67 6.66 0.34 7.32 0 8 C-0.33 7.01 -0.66 6.02 -1 5 C-3.00016466 3.79117904 -3.00016466 3.79117904 -5 3 C-4.34 3 -3.68 3 -3 3 C-2.67 2.34 -2.34 1.68 -2 1 C-1.34 1 -0.68 1 0 1 C0 0.67 0 0.34 0 0 Z " fill="#D0D4DE" transform="translate(387,315)"/>
<path d="M0 0 C2.475 0.99 2.475 0.99 5 2 C4.67 3.32 4.34 4.64 4 6 C2.68 6 1.36 6 0 6 C-1.125 2.25 -1.125 2.25 0 0 Z " fill="#9FA8BC" transform="translate(123,305)"/>
<path d="M0 0 C0.66 0.66 1.32 1.32 2 2 C4.10820797 1.6814823 4.10820797 1.6814823 6 1 C5.625 2.9375 5.625 2.9375 5 5 C4.01 5.495 4.01 5.495 3 6 C3 6.66 3 7.32 3 8 C2.34 8 1.68 8 1 8 C0.67 5.36 0.34 2.72 0 0 Z " fill="#BDC3D1" transform="translate(130,291)"/>
<path d="M0 0 C0.66 0 1.32 0 2 0 C2 0.99 2 1.98 2 3 C2.66 3.33 3.32 3.66 4 4 C3.34 4 2.68 4 2 4 C2 5.32 2 6.64 2 8 C1.01 8 0.02 8 -1 8 C-1 6.68 -1 5.36 -1 4 C-1.33 3.34 -1.66 2.68 -2 2 C-1.34 2 -0.68 2 0 2 C0 1.34 0 0.68 0 0 Z " fill="#CACFDA" transform="translate(122,285)"/>
<path d="M0 0 C2.97 0.495 2.97 0.495 6 1 C5.34 2.65 4.68 4.3 4 6 C3.67 5.01 3.34 4.02 3 3 C2.01 3 1.02 3 0 3 C-0.33 3.66 -0.66 4.32 -1 5 C-0.67 3.35 -0.34 1.7 0 0 Z " fill="#9CA6BA" transform="translate(381,318)"/>
<path d="M0 0 C1.32 0.33 2.64 0.66 4 1 C4 2.65 4 4.3 4 6 C3.01 6 2.02 6 1 6 C0.67 4.02 0.34 2.04 0 0 Z " fill="#D7DBE3" transform="translate(369,311)"/>
<path d="M0 0 C2.375 -0.1875 2.375 -0.1875 5 0 C7 3 7 3 7 6 C6.34 6 5.68 6 5 6 C5 5.34 5 4.68 5 4 C4.01 3.67 3.02 3.34 2 3 C2 2.34 2 1.68 2 1 C1.34 0.67 0.68 0.34 0 0 Z " fill="#8893AC" transform="translate(380,292)"/>
<path d="M0 0 C4.67692308 1.47692308 4.67692308 1.47692308 6.3125 4.125 C6.539375 4.74375 6.76625 5.3625 7 6 C5.35 6 3.7 6 2 6 C1.34 4.02 0.68 2.04 0 0 Z " fill="#617091" transform="translate(380,294)"/>
<path d="M0 0 C0.99 0.33 1.98 0.66 3 1 C2.34 2.32 1.68 3.64 1 5 C0.34 4.67 -0.32 4.34 -1 4 C-1.33 4.66 -1.66 5.32 -2 6 C-2.99 5.34 -3.98 4.68 -5 4 C-4.360625 3.71125 -3.72125 3.4225 -3.0625 3.125 C-0.84793921 2.17176549 -0.84793921 2.17176549 0 0 Z " fill="#6F7D9A" transform="translate(142,309)"/>
<path d="M0 0 C0.66 0 1.32 0 2 0 C2 0.99 2 1.98 2 3 C2.66 3.33 3.32 3.66 4 4 C3.34 4 2.68 4 2 4 C2 4.99 2 5.98 2 7 C1.34 7 0.68 7 0 7 C0 6.01 0 5.02 0 4 C-0.66 3.67 -1.32 3.34 -2 3 C-1.34 3 -0.68 3 0 3 C0 2.01 0 1.02 0 0 Z " fill="#4A5B80" transform="translate(124,290)"/>
<path d="M0 0 C0.33 0.66 0.66 1.32 1 2 C1.66 2.33 2.32 2.66 3 3 C2.67 4.65 2.34 6.3 2 8 C1.34 8 0.68 8 0 8 C-1.125 2.25 -1.125 2.25 0 0 Z " fill="#BFC5D2" transform="translate(357,310)"/>
<path d="M0 0 C1.65 0 3.3 0 5 0 C5.33 0.99 5.66 1.98 6 3 C5.38125 3.144375 4.7625 3.28875 4.125 3.4375 C1.96741678 3.93152225 1.96741678 3.93152225 0 5 C0 3.35 0 1.7 0 0 Z " fill="#E7E9EE" transform="translate(374,302)"/>
<path d="M0 0 C0.33 0.66 0.66 1.32 1 2 C1.66 2.33 2.32 2.66 3 3 C2.34 3 1.68 3 1 3 C0.67 3.66 0.34 4.32 0 5 C-1.32 4.67 -2.64 4.34 -4 4 C-3.67 3.01 -3.34 2.02 -3 1 C-2.01 0.67 -1.02 0.34 0 0 Z " fill="#5C6B8D" transform="translate(109,302)"/>
</svg>
